<svg width="52" height="23" viewBox="0 0 52 23" fill="none" xmlns="http://www.w3.org/2000/svg">
<path d="M1.97205 9.70618C1.14362 9.70618 0.472046 10.3777 0.472046 11.2062C0.472046 12.0346 1.14362 12.7062 1.97205 12.7062V9.70618ZM51.4655 12.2668C52.0513 11.6811 52.0513 10.7313 51.4655 10.1455L41.9196 0.599575C41.3338 0.0137886 40.384 0.0137886 39.7982 0.599575C39.2124 1.18536 39.2124 2.13511 39.7982 2.7209L48.2835 11.2062L39.7982 19.6915C39.2124 20.2772 39.2124 21.227 39.7982 21.8128C40.384 22.3986 41.3338 22.3986 41.9196 21.8128L51.4655 12.2668ZM1.97205 12.7062H50.4048V9.70618H1.97205V12.7062Z" fill="black"/>
</svg>
