<svg width="184" height="56" viewBox="0 0 184 56" fill="none" xmlns="http://www.w3.org/2000/svg">
<path d="M124.959 12.3507C147.628 16.0726 168.268 28.2533 181.823 53.6641M181.823 53.6641L180.226 35.3555M181.823 53.6641L167.256 44.4824" stroke="black" stroke-width="2.17802" stroke-linecap="round"/>
<path d="M1.53564 18.3948L4.82445 2.84378H7.56875L9.07158 15.5416H9.1587L16.063 2.84378H19.0469L15.8234 18.3948H13.8632L15.8234 9.16003C15.9686 8.52115 16.0993 7.92582 16.2155 7.37406C16.3462 6.82229 16.4623 6.32135 16.564 5.87122C16.6801 5.4211 16.7818 5.04358 16.8689 4.73865H16.8253L9.33295 18.3948H7.78655L6.13126 4.76043H6.04414C6.0151 5.05084 5.96428 5.44288 5.89168 5.93657C5.81907 6.41573 5.73195 6.93119 5.63031 7.48296C5.54319 8.0202 5.44881 8.54293 5.34717 9.05113L3.36517 18.3948H1.53564ZM23.0941 18.6126C22.5133 18.6126 21.9978 18.5037 21.5477 18.2859C21.1121 18.0681 20.7709 17.7414 20.5241 17.3058C20.2917 16.8702 20.1756 16.3402 20.1756 15.7159C20.1756 15.3819 20.1973 15.0697 20.2409 14.7793C20.299 14.4744 20.3571 14.1622 20.4152 13.8428L21.9398 6.72065H23.8782L22.31 14.0606C22.2519 14.38 22.2011 14.6559 22.1576 14.8882C22.1285 15.1205 22.114 15.3311 22.114 15.5199C22.114 15.9845 22.2302 16.3548 22.4625 16.6306C22.7093 16.892 23.1014 17.0227 23.6386 17.0227C24.1323 17.0227 24.6623 16.8484 25.2286 16.5C25.8094 16.1515 26.3466 15.5925 26.8403 14.8229C27.334 14.0533 27.7188 13.0296 27.9947 11.7519L29.0619 6.72065H30.9568L28.4738 18.3948H26.9056L27.1452 16.2386H27.0363C26.7604 16.5871 26.4337 16.9501 26.0562 17.3276C25.6932 17.6906 25.2649 17.9955 24.7712 18.2424C24.292 18.4892 23.733 18.6126 23.0941 18.6126ZM32.2004 18.3948L34.6834 6.72065H36.5783L35.5764 11.5776H41.065L42.1104 6.72065H44.0271L41.5659 18.3948H39.6275L40.7165 13.1676H35.2279L34.1171 18.3948H32.2004ZM48.7879 18.6126C48.2071 18.6126 47.6917 18.5037 47.2415 18.2859C46.8059 18.0681 46.4647 17.7414 46.2179 17.3058C45.9856 16.8702 45.8694 16.3402 45.8694 15.7159C45.8694 15.3819 45.8912 15.0697 45.9347 14.7793C45.9928 14.4744 46.0509 14.1622 46.109 13.8428L47.6336 6.72065H49.572L48.0038 14.0606C47.9458 14.38 47.8949 14.6559 47.8514 14.8882C47.8223 15.1205 47.8078 15.3311 47.8078 15.5199C47.8078 15.9845 47.924 16.3548 48.1563 16.6306C48.4032 16.892 48.7952 17.0227 49.3324 17.0227C49.8261 17.0227 50.3561 16.8484 50.9224 16.5C51.5032 16.1515 52.0404 15.5925 52.5341 14.8229C53.0278 14.0533 53.4126 13.0296 53.6885 11.7519L54.7557 6.72065H56.6506L54.1676 18.3948H52.5995L52.8391 16.2386H52.7301C52.4543 16.5871 52.1276 16.9501 51.75 17.3276C51.387 17.6906 50.9587 17.9955 50.465 18.2424C49.9858 18.4892 49.4268 18.6126 48.7879 18.6126ZM58.6244 13.9282L60.0069 12.5457H64.9734L63.6015 13.9282H58.6244ZM72.9728 15.106C73.0744 14.5978 73.1906 14.1041 73.3213 13.625C73.4665 13.1458 73.5899 12.7247 73.6915 12.3617H73.6044C73.314 12.7538 72.9801 13.1022 72.6025 13.4072C72.225 13.6976 71.8039 13.9299 71.3393 14.1041C70.8892 14.2784 70.3882 14.3655 69.8365 14.3655C69.183 14.3655 68.6313 14.2566 68.1812 14.0388C67.7456 13.8065 67.4116 13.4653 67.1793 13.0151C66.9615 12.565 66.8526 12.0205 66.8526 11.3816C66.8526 11.1057 66.8816 10.7935 66.9397 10.4451C66.9978 10.0966 67.0558 9.7481 67.1139 9.39962L67.6802 6.72065H69.6187L69.0306 9.55208C68.9435 9.9296 68.8781 10.249 68.8346 10.5104C68.8055 10.7572 68.791 10.9896 68.791 11.2074C68.791 11.7882 68.9289 12.1947 69.2048 12.4271C69.4952 12.6449 69.8873 12.7538 70.381 12.7538C70.8892 12.7538 71.4046 12.6158 71.9274 12.3399C72.4646 12.0641 72.9655 11.5776 73.4302 10.8807C73.8948 10.1837 74.2651 9.20359 74.541 7.94034L74.8023 6.72065H76.719L74.2361 18.3948H72.2758L72.9728 15.106ZM81.5453 18.6126C80.921 18.6126 80.3692 18.4674 79.89 18.177C79.4254 17.8721 79.0551 17.422 78.7793 16.8267C78.5179 16.2313 78.3872 15.4981 78.3872 14.6269C78.3872 13.7557 78.4743 12.9207 78.6486 12.1221C78.8373 11.309 79.0987 10.5612 79.4327 9.87878C79.7666 9.19633 80.1659 8.60827 80.6306 8.11458C81.1097 7.60638 81.6397 7.21434 82.2205 6.93845C82.8159 6.64805 83.4475 6.50285 84.1154 6.50285C84.6236 6.50285 85.0665 6.59723 85.444 6.78599C85.836 6.97475 86.1627 7.2216 86.4241 7.52652C86.6855 7.83144 86.896 8.16541 87.0557 8.52841H87.1646L87.8616 6.72065H89.3209L86.8379 18.3948H85.3133L85.5965 16.2386H85.5093C85.1754 16.6597 84.8051 17.0517 84.3985 17.4147C83.992 17.7777 83.5491 18.0681 83.07 18.2859C82.6053 18.5037 82.0971 18.6126 81.5453 18.6126ZM82.177 17.0227C82.7142 17.0227 83.2369 16.8267 83.7451 16.4346C84.2679 16.0426 84.7398 15.5126 85.1609 14.8447C85.5819 14.1767 85.9014 13.429 86.1192 12.6013C86.2353 12.1802 86.3079 11.7954 86.337 11.447C86.3805 11.084 86.4023 10.75 86.4023 10.4451C86.4023 9.76262 86.2136 9.20359 85.836 8.76799C85.4585 8.33239 84.9503 8.11458 84.3114 8.11458C83.8613 8.11458 83.433 8.23075 83.0264 8.46307C82.6344 8.69539 82.2714 9.02209 81.9374 9.44318C81.6034 9.84974 81.3203 10.3289 81.088 10.8807C80.8556 11.4324 80.6741 12.035 80.5435 12.6884C80.4128 13.3273 80.3474 13.988 80.3474 14.6704C80.3474 15.4545 80.5072 16.0426 80.8266 16.4346C81.146 16.8267 81.5962 17.0227 82.177 17.0227ZM90.3306 18.3948L92.8135 6.72065H94.3817L94.1421 8.87689H94.251C94.5124 8.51389 94.8173 8.15089 95.1658 7.78788C95.5288 7.42488 95.9426 7.11996 96.4073 6.87311C96.8864 6.62627 97.4237 6.50285 98.019 6.50285C98.8176 6.50285 99.4275 6.73517 99.8485 7.19982C100.284 7.64994 100.546 8.28157 100.633 9.09469H100.72C101.01 8.65909 101.351 8.24527 101.743 7.85322C102.15 7.46118 102.6 7.14174 103.094 6.89489C103.587 6.63353 104.132 6.50285 104.727 6.50285C105.628 6.50285 106.325 6.74969 106.818 7.24338C107.312 7.73706 107.559 8.44855 107.559 9.37784C107.559 9.72632 107.537 10.053 107.493 10.3579C107.45 10.6483 107.392 10.9605 107.319 11.2945L105.816 18.3948H103.878L105.446 11.0767C105.519 10.7427 105.569 10.4596 105.599 10.2273C105.628 9.99494 105.642 9.76988 105.642 9.55208C105.642 9.11647 105.519 8.76799 105.272 8.50663C105.039 8.24527 104.669 8.11458 104.161 8.11458C103.813 8.11458 103.442 8.21623 103.05 8.41951C102.658 8.60827 102.273 8.90593 101.896 9.3125C101.518 9.71906 101.177 10.2418 100.872 10.8807C100.567 11.505 100.32 12.2528 100.132 13.124L99.0209 18.3948H97.1042L98.6506 11.0767C98.7232 10.7427 98.774 10.4668 98.8031 10.249C98.8321 10.0167 98.8467 9.81344 98.8467 9.6392C98.8467 9.16003 98.7377 8.78977 98.5199 8.52841C98.3021 8.25253 97.9391 8.11458 97.4309 8.11458C97.0825 8.11458 96.7049 8.20897 96.2984 8.39773C95.9063 8.58649 95.5215 8.89141 95.144 9.3125C94.7665 9.71906 94.418 10.2563 94.0986 10.9242C93.7791 11.5922 93.5178 12.4053 93.3145 13.3636L92.2473 18.3948H90.3306Z" fill="black"/>
</svg>
