<svg width="86" height="33" viewBox="0 0 86 33" fill="none" xmlns="http://www.w3.org/2000/svg">
<path d="M40.5695 10.7081C28.2703 8.50529 14.3759 15.3356 1.46924 31.635M1.46924 31.635L2.17667 23.5227M1.46924 31.635L10.1977 28.4186" stroke="black" stroke-linecap="round"/>
<path d="M48.6522 8.40612C48.1255 8.40612 47.6722 8.29612 47.2922 8.07612C46.9122 7.85612 46.6189 7.54279 46.4122 7.13612C46.2122 6.72279 46.1122 6.23612 46.1122 5.67612C46.1122 5.24945 46.1622 4.81612 46.2622 4.37612C46.3622 3.93612 46.5122 3.51945 46.7122 3.12612C46.9189 2.73279 47.1755 2.38279 47.4822 2.07612C47.7955 1.76279 48.1589 1.51612 48.5722 1.33612C48.9855 1.15612 49.4522 1.06612 49.9722 1.06612C50.3122 1.06612 50.6255 1.09945 50.9122 1.16612C51.1989 1.23279 51.4655 1.33279 51.7122 1.46612L51.3522 2.20612C51.1722 2.11279 50.9689 2.03279 50.7422 1.96612C50.5222 1.89279 50.2655 1.85612 49.9722 1.85612C49.5722 1.85612 49.2155 1.92945 48.9022 2.07612C48.5889 2.22279 48.3155 2.42279 48.0822 2.67612C47.8555 2.92945 47.6655 3.21945 47.5122 3.54612C47.3589 3.86612 47.2455 4.20945 47.1722 4.57612C47.0989 4.93612 47.0622 5.29612 47.0622 5.65612C47.0622 6.26279 47.2155 6.74279 47.5222 7.09612C47.8355 7.44279 48.2655 7.61612 48.8122 7.61612C49.0855 7.61612 49.3522 7.58946 49.6122 7.53612C49.8789 7.48279 50.1389 7.41279 50.3922 7.32612V8.10612C50.1322 8.19946 49.8689 8.27279 49.6022 8.32612C49.3422 8.37946 49.0255 8.40612 48.6522 8.40612ZM51.2314 8.37612C51.1447 8.37612 51.0647 8.36612 50.9914 8.34612C50.918 8.33279 50.8614 8.31946 50.8214 8.30612V7.54612C50.868 7.56612 50.918 7.58279 50.9714 7.59612C51.0247 7.60279 51.0847 7.60612 51.1514 7.60612C51.3114 7.60612 51.4514 7.56946 51.5714 7.49612C51.698 7.41612 51.8147 7.29279 51.9214 7.12612C52.028 6.95946 52.1347 6.74279 52.2414 6.47612C52.3547 6.20946 52.4747 5.88946 52.6014 5.51612C52.7547 5.06946 52.9014 4.68279 53.0414 4.35612C53.1814 4.02945 53.338 3.75945 53.5114 3.54612C53.6914 3.32612 53.9114 3.16279 54.1714 3.05612C54.4314 2.94945 54.7547 2.89612 55.1414 2.89612C55.368 2.89612 55.588 2.91279 55.8014 2.94612C56.0147 2.97279 56.208 3.01279 56.3814 3.06612L55.2614 8.30612H54.3714L55.3814 3.67612C55.3347 3.66279 55.278 3.65279 55.2114 3.64612C55.1447 3.63946 55.0747 3.63612 55.0014 3.63612C54.728 3.63612 54.5047 3.70279 54.3314 3.83612C54.1647 3.96279 54.0114 4.18279 53.8714 4.49612C53.7314 4.80945 53.5647 5.24945 53.3714 5.81612C53.2247 6.22946 53.0847 6.59612 52.9514 6.91612C52.818 7.22946 52.6747 7.49612 52.5214 7.71612C52.368 7.92946 52.188 8.09279 51.9814 8.20612C51.7747 8.31946 51.5247 8.37612 51.2314 8.37612ZM58.6308 8.40612C58.3441 8.40612 58.0908 8.33946 57.8708 8.20612C57.6575 8.06612 57.4875 7.85946 57.3608 7.58612C57.2408 7.31279 57.1808 6.97612 57.1808 6.57612C57.1808 6.17612 57.2208 5.79279 57.3008 5.42612C57.3875 5.05279 57.5075 4.70945 57.6608 4.39612C57.8141 4.08279 57.9975 3.81279 58.2108 3.58612C58.4308 3.35279 58.6741 3.17279 58.9408 3.04612C59.2141 2.91279 59.5041 2.84612 59.8108 2.84612C60.0441 2.84612 60.2475 2.88945 60.4208 2.97612C60.6008 3.06279 60.7508 3.17612 60.8708 3.31612C60.9908 3.45612 61.0875 3.60946 61.1608 3.77612H61.2108L61.5308 2.94612H62.2008L61.0608 8.30612H60.3608L60.4908 7.31612H60.4508C60.2975 7.50946 60.1275 7.68946 59.9408 7.85612C59.7541 8.02279 59.5508 8.15612 59.3308 8.25612C59.1175 8.35612 58.8841 8.40612 58.6308 8.40612ZM58.9208 7.67612C59.1675 7.67612 59.4075 7.58612 59.6408 7.40612C59.8808 7.22612 60.0975 6.98279 60.2908 6.67612C60.4841 6.36946 60.6308 6.02612 60.7308 5.64612C60.7841 5.45279 60.8175 5.27612 60.8308 5.11612C60.8508 4.94946 60.8608 4.79612 60.8608 4.65612C60.8608 4.34279 60.7741 4.08612 60.6008 3.88612C60.4275 3.68612 60.1941 3.58612 59.9008 3.58612C59.6941 3.58612 59.4975 3.63945 59.3108 3.74612C59.1308 3.85279 58.9641 4.00279 58.8108 4.19612C58.6575 4.38279 58.5275 4.60279 58.4208 4.85612C58.3141 5.10945 58.2308 5.38612 58.1708 5.68612C58.1108 5.97946 58.0808 6.28279 58.0808 6.59612C58.0808 6.95612 58.1541 7.22612 58.3008 7.40612C58.4475 7.58612 58.6541 7.67612 58.9208 7.67612ZM65.9844 2.24612C65.6111 2.24612 65.3077 2.19612 65.0744 2.09612C64.8411 1.98945 64.6711 1.84612 64.5644 1.66612C64.4577 1.48612 64.4044 1.27612 64.4044 1.03612C64.4044 0.976121 64.4077 0.916121 64.4144 0.856121C64.4277 0.789455 64.4377 0.739455 64.4444 0.706121H65.2144C65.2077 0.759455 65.2011 0.809455 65.1944 0.856121C65.1877 0.896121 65.1844 0.939455 65.1844 0.986121C65.1844 1.17279 65.2477 1.32612 65.3744 1.44612C65.5077 1.55945 65.7277 1.61612 66.0344 1.61612C66.3477 1.61612 66.6044 1.55612 66.8044 1.43612C67.0111 1.30945 67.1477 1.06612 67.2144 0.706121H68.0544C67.9944 1.01945 67.8844 1.29279 67.7244 1.52612C67.5644 1.75279 67.3411 1.92945 67.0544 2.05612C66.7744 2.18279 66.4177 2.24612 65.9844 2.24612ZM64.2744 8.40612C64.0077 8.40612 63.7711 8.35612 63.5644 8.25612C63.3644 8.15612 63.2077 8.00612 63.0944 7.80612C62.9877 7.60612 62.9344 7.36279 62.9344 7.07612C62.9344 6.92279 62.9444 6.77946 62.9644 6.64612C62.9911 6.50612 63.0177 6.36279 63.0444 6.21612L63.7444 2.94612H64.6344L63.9144 6.31612C63.8877 6.46279 63.8644 6.58946 63.8444 6.69612C63.8311 6.80279 63.8244 6.89946 63.8244 6.98612C63.8244 7.19946 63.8777 7.36946 63.9844 7.49612C64.0977 7.61612 64.2777 7.67612 64.5244 7.67612C64.7511 7.67612 64.9944 7.59612 65.2544 7.43612C65.5211 7.27612 65.7677 7.01946 65.9944 6.66612C66.2211 6.31279 66.3977 5.84279 66.5244 5.25612L67.0144 2.94612H67.8844L66.7444 8.30612H66.0244L66.1344 7.31612H66.0844C65.9577 7.47612 65.8077 7.64279 65.6344 7.81612C65.4677 7.98279 65.2711 8.12279 65.0444 8.23612C64.8244 8.34946 64.5677 8.40612 64.2744 8.40612ZM70.4254 8.40612C70.0387 8.40612 69.7121 8.32612 69.4454 8.16612C69.1854 7.99946 68.9887 7.76946 68.8554 7.47612C68.7221 7.18279 68.6554 6.84279 68.6554 6.45612C68.6554 6.14946 68.6887 5.84279 68.7554 5.53612C68.8221 5.22279 68.9221 4.92612 69.0554 4.64612C69.1954 4.35946 69.3654 4.10612 69.5654 3.88612C69.7654 3.66612 69.9954 3.49279 70.2554 3.36612C70.5221 3.23946 70.8187 3.17612 71.1454 3.17612C71.4121 3.17612 71.6354 3.21612 71.8154 3.29612C71.9954 3.36945 72.1421 3.47279 72.2554 3.60612C72.3754 3.73279 72.4721 3.87279 72.5454 4.02612H72.5754C72.5821 3.97279 72.5854 3.92279 72.5854 3.87612C72.5854 3.82279 72.5854 3.77945 72.5854 3.74612C72.5854 2.92612 72.4754 2.31945 72.2554 1.92612C72.0354 1.53279 71.6987 1.33612 71.2454 1.33612C71.0787 1.33612 70.8987 1.35612 70.7054 1.39612C70.5187 1.43612 70.3487 1.48945 70.1954 1.55612L69.9754 0.906122C70.1354 0.826122 70.3454 0.756121 70.6054 0.696121C70.8654 0.636121 71.1154 0.606121 71.3554 0.606121C71.8487 0.606121 72.2487 0.726121 72.5554 0.966122C72.8687 1.19945 73.0987 1.54612 73.2454 2.00612C73.3987 2.45945 73.4754 3.01945 73.4754 3.68612C73.4754 4.01945 73.4487 4.36945 73.3954 4.73612C73.3421 5.09612 73.2621 5.45279 73.1554 5.80612C73.0487 6.15946 72.9121 6.49279 72.7454 6.80612C72.5854 7.11946 72.3921 7.39612 72.1654 7.63612C71.9387 7.87612 71.6821 8.06612 71.3954 8.20612C71.1087 8.33946 70.7854 8.40612 70.4254 8.40612ZM70.5154 7.66612C70.7154 7.66612 70.8987 7.61946 71.0654 7.52612C71.2387 7.42612 71.3954 7.29279 71.5354 7.12612C71.6821 6.95279 71.8121 6.75279 71.9254 6.52612C72.0387 6.29946 72.1354 6.05612 72.2154 5.79612C72.3021 5.53612 72.3721 5.26612 72.4254 4.98612C72.3654 4.77279 72.2787 4.58279 72.1654 4.41612C72.0587 4.24279 71.9254 4.10612 71.7654 4.00612C71.6121 3.90612 71.4321 3.85612 71.2254 3.85612C71.0454 3.85612 70.8721 3.89945 70.7054 3.98612C70.5387 4.07279 70.3854 4.19612 70.2454 4.35612C70.1054 4.51612 69.9821 4.70279 69.8754 4.91612C69.7687 5.12946 69.6854 5.36612 69.6254 5.62612C69.5721 5.88612 69.5454 6.15946 69.5454 6.44612C69.5454 6.79279 69.6187 7.08279 69.7654 7.31612C69.9187 7.54946 70.1687 7.66612 70.5154 7.66612ZM76.2595 8.40612C75.8461 8.40612 75.4928 8.32612 75.1995 8.16612C74.9128 7.99946 74.6928 7.76612 74.5395 7.46612C74.3928 7.15946 74.3195 6.79946 74.3195 6.38612C74.3195 5.95946 74.3795 5.53946 74.4995 5.12612C74.6261 4.70612 74.8061 4.32612 75.0395 3.98612C75.2728 3.63945 75.5528 3.36279 75.8795 3.15612C76.2128 2.94945 76.5861 2.84612 76.9995 2.84612C77.5061 2.84612 77.8861 2.95612 78.1395 3.17612C78.3995 3.39612 78.5295 3.70279 78.5295 4.09612C78.5295 4.35612 78.4695 4.60279 78.3495 4.83612C78.2295 5.06279 78.0428 5.26279 77.7895 5.43612C77.5361 5.60946 77.2128 5.74612 76.8195 5.84612C76.4261 5.93946 75.9528 5.98612 75.3995 5.98612H75.2295C75.2228 6.04612 75.2161 6.10946 75.2095 6.17612C75.2095 6.24279 75.2095 6.30279 75.2095 6.35612C75.2095 6.76279 75.3095 7.08612 75.5095 7.32612C75.7095 7.55946 76.0128 7.67612 76.4195 7.67612C76.6728 7.67612 76.9128 7.63946 77.1395 7.56612C77.3661 7.49279 77.6128 7.39279 77.8795 7.26612V8.01612C77.6261 8.12946 77.3761 8.22279 77.1295 8.29612C76.8895 8.36946 76.5995 8.40612 76.2595 8.40612ZM75.4295 5.27612C75.8295 5.27612 76.1995 5.24279 76.5395 5.17612C76.8795 5.10279 77.1528 4.98612 77.3595 4.82612C77.5661 4.65945 77.6695 4.43945 77.6695 4.16612C77.6695 3.99279 77.6095 3.85279 77.4895 3.74612C77.3761 3.63279 77.1961 3.57612 76.9495 3.57612C76.7361 3.57612 76.5261 3.64279 76.3195 3.77612C76.1128 3.90945 75.9261 4.10279 75.7595 4.35612C75.5928 4.60945 75.4595 4.91612 75.3595 5.27612H75.4295ZM78.6097 10.7061L80.2497 2.94612H80.9697L80.8497 3.94612H80.8897C81.0497 3.74612 81.2197 3.56612 81.3997 3.40612C81.5797 3.23945 81.7764 3.10612 81.9897 3.00612C82.203 2.90612 82.433 2.85612 82.6797 2.85612C82.9664 2.85612 83.2164 2.92612 83.4297 3.06612C83.6497 3.19945 83.8197 3.40279 83.9397 3.67612C84.0664 3.94279 84.1297 4.27946 84.1297 4.68612C84.1297 5.07946 84.0897 5.45946 84.0097 5.82612C83.9364 6.19279 83.823 6.53279 83.6697 6.84612C83.523 7.15279 83.343 7.42612 83.1297 7.66612C82.923 7.89946 82.683 8.08279 82.4097 8.21612C82.1364 8.34279 81.8397 8.40612 81.5197 8.40612C81.2797 8.40612 81.0697 8.36279 80.8897 8.27612C80.7164 8.18946 80.5697 8.07612 80.4497 7.93612C80.3297 7.79612 80.2297 7.64612 80.1497 7.48612H80.0997C80.093 7.59279 80.0764 7.74279 80.0497 7.93612C80.023 8.12279 79.9964 8.27612 79.9697 8.39612L79.4797 10.7061H78.6097ZM81.4497 7.67612C81.663 7.67612 81.8597 7.62279 82.0397 7.51612C82.2264 7.40279 82.393 7.24946 82.5397 7.05612C82.6864 6.85612 82.8097 6.62946 82.9097 6.37612C83.0164 6.11612 83.0964 5.84279 83.1497 5.55612C83.203 5.26279 83.2297 4.96612 83.2297 4.66612C83.2297 4.30612 83.1564 4.03612 83.0097 3.85612C82.8697 3.67612 82.6597 3.58612 82.3797 3.58612C82.233 3.58612 82.083 3.62279 81.9297 3.69612C81.7764 3.76945 81.6264 3.87612 81.4797 4.01612C81.333 4.14946 81.1964 4.30946 81.0697 4.49612C80.943 4.68279 80.8297 4.88946 80.7297 5.11612C80.6364 5.33612 80.563 5.57279 80.5097 5.82612C80.4564 6.07279 80.4297 6.32946 80.4297 6.59612C80.4297 6.91612 80.513 7.17612 80.6797 7.37612C80.8464 7.57612 81.103 7.67612 81.4497 7.67612ZM47.7922 18.4061C47.3855 18.4061 47.0389 18.3228 46.7522 18.1561C46.4722 17.9828 46.2555 17.7295 46.1022 17.3961C45.9555 17.0561 45.8822 16.6395 45.8822 16.1461C45.8822 15.8928 45.9022 15.6095 45.9422 15.2961C45.9822 14.9828 46.0422 14.6561 46.1222 14.3161C46.2089 13.9761 46.3189 13.6428 46.4522 13.3161C46.5855 12.9828 46.7455 12.6728 46.9322 12.3861C47.1189 12.0995 47.3355 11.8528 47.5822 11.6461C47.8355 11.4328 48.1189 11.2795 48.4322 11.1861C48.5522 11.1461 48.7255 11.1028 48.9522 11.0561C49.1855 11.0028 49.4389 10.9495 49.7122 10.8961C49.9855 10.8361 50.2455 10.7861 50.4922 10.7461C50.7389 10.7061 50.9355 10.6761 51.0822 10.6561L51.1822 11.3761C50.9955 11.4028 50.7555 11.4428 50.4622 11.4961C50.1689 11.5495 49.8722 11.6095 49.5722 11.6761C49.2789 11.7361 49.0289 11.7995 48.8222 11.8661C48.5422 11.9528 48.2855 12.1028 48.0522 12.3161C47.8255 12.5228 47.6255 12.7861 47.4522 13.1061C47.2789 13.4195 47.1355 13.7895 47.0222 14.2161L47.0522 14.2261C47.2322 14.0128 47.4755 13.8095 47.7822 13.6161C48.0889 13.4228 48.4389 13.3261 48.8322 13.3261C49.3389 13.3261 49.7155 13.4861 49.9622 13.8061C50.2155 14.1195 50.3422 14.5595 50.3422 15.1261C50.3422 15.4528 50.3122 15.7761 50.2522 16.0961C50.1922 16.4095 50.0955 16.7061 49.9622 16.9861C49.8355 17.2661 49.6722 17.5128 49.4722 17.7261C49.2722 17.9395 49.0322 18.1061 48.7522 18.2261C48.4789 18.3461 48.1589 18.4061 47.7922 18.4061ZM47.8722 17.6761C48.1055 17.6761 48.3089 17.6228 48.4822 17.5161C48.6622 17.4095 48.8122 17.2661 48.9322 17.0861C49.0522 16.9061 49.1489 16.7095 49.2222 16.4961C49.3022 16.2761 49.3589 16.0561 49.3922 15.8361C49.4255 15.6095 49.4422 15.4028 49.4422 15.2161C49.4422 14.8161 49.3722 14.5228 49.2322 14.3361C49.0922 14.1495 48.8822 14.0561 48.6022 14.0561C48.3555 14.0561 48.1189 14.1161 47.8922 14.2361C47.6722 14.3561 47.4755 14.4995 47.3022 14.6661C47.1289 14.8261 46.9889 14.9795 46.8822 15.1261C46.8555 15.3061 46.8289 15.4861 46.8022 15.6661C46.7822 15.8461 46.7722 16.0161 46.7722 16.1761C46.7722 16.4761 46.8089 16.7395 46.8822 16.9661C46.9555 17.1861 47.0722 17.3595 47.2322 17.4861C47.3922 17.6128 47.6055 17.6761 47.8722 17.6761ZM50.8114 18.3761C50.7248 18.3761 50.6448 18.3661 50.5714 18.3461C50.4981 18.3328 50.4414 18.3195 50.4014 18.3061V17.5461C50.4481 17.5661 50.4981 17.5828 50.5514 17.5961C50.6048 17.6028 50.6648 17.6061 50.7314 17.6061C50.8914 17.6061 51.0314 17.5695 51.1514 17.4961C51.2781 17.4161 51.3948 17.2928 51.5014 17.1261C51.6081 16.9595 51.7148 16.7428 51.8214 16.4761C51.9348 16.2095 52.0548 15.8895 52.1814 15.5161C52.3348 15.0695 52.4814 14.6828 52.6214 14.3561C52.7614 14.0295 52.9181 13.7595 53.0914 13.5461C53.2714 13.3261 53.4914 13.1628 53.7514 13.0561C54.0114 12.9495 54.3348 12.8961 54.7214 12.8961C54.9481 12.8961 55.1681 12.9128 55.3814 12.9461C55.5948 12.9728 55.7881 13.0128 55.9614 13.0661L54.8414 18.3061H53.9514L54.9614 13.6761C54.9148 13.6628 54.8581 13.6528 54.7914 13.6461C54.7248 13.6395 54.6548 13.6361 54.5814 13.6361C54.3081 13.6361 54.0848 13.7028 53.9114 13.8361C53.7448 13.9628 53.5914 14.1828 53.4514 14.4961C53.3114 14.8095 53.1448 15.2495 52.9514 15.8161C52.8048 16.2295 52.6648 16.5961 52.5314 16.9161C52.3981 17.2295 52.2548 17.4961 52.1014 17.7161C51.9481 17.9295 51.7681 18.0928 51.5614 18.2061C51.3548 18.3195 51.1048 18.3761 50.8114 18.3761ZM58.7609 18.3861C58.3476 18.3861 57.9909 18.3028 57.6909 18.1361C57.3909 17.9695 57.1609 17.7328 57.0009 17.4261C56.8409 17.1128 56.7609 16.7461 56.7609 16.3261C56.7609 15.9995 56.7976 15.6728 56.8709 15.3461C56.9442 15.0128 57.0509 14.6995 57.1909 14.4061C57.3376 14.1128 57.5176 13.8528 57.7309 13.6261C57.9442 13.3928 58.1942 13.2095 58.4809 13.0761C58.7676 12.9428 59.0876 12.8761 59.4409 12.8761C59.8609 12.8761 60.2176 12.9595 60.5109 13.1261C60.8109 13.2928 61.0409 13.5328 61.2009 13.8461C61.3609 14.1528 61.4409 14.5195 61.4409 14.9461C61.4409 15.2728 61.4042 15.5995 61.3309 15.9261C61.2576 16.2528 61.1476 16.5661 61.0009 16.8661C60.8609 17.1595 60.6842 17.4195 60.4709 17.6461C60.2576 17.8728 60.0076 18.0528 59.7209 18.1861C59.4342 18.3195 59.1142 18.3861 58.7609 18.3861ZM58.8109 17.6561C59.0042 17.6561 59.1842 17.6161 59.3509 17.5361C59.5242 17.4561 59.6842 17.3395 59.8309 17.1861C59.9776 17.0261 60.1009 16.8328 60.2009 16.6061C60.3076 16.3728 60.3909 16.1095 60.4509 15.8161C60.5109 15.5228 60.5409 15.1995 60.5409 14.8461C60.5409 14.6461 60.5042 14.4528 60.4309 14.2661C60.3642 14.0728 60.2509 13.9161 60.0909 13.7961C59.9309 13.6695 59.7176 13.6061 59.4509 13.6061C59.2309 13.6061 59.0276 13.6528 58.8409 13.7461C58.6542 13.8395 58.4876 13.9728 58.3409 14.1461C58.1942 14.3128 58.0676 14.5128 57.9609 14.7461C57.8609 14.9728 57.7842 15.2228 57.7309 15.4961C57.6776 15.7695 57.6509 16.0561 57.6509 16.3561C57.6509 16.7695 57.7509 17.0895 57.9509 17.3161C58.1576 17.5428 58.4442 17.6561 58.8109 17.6561ZM62.1956 18.3061L63.3256 12.9461H64.1956L63.6456 15.5261L66.1456 12.9461H67.2456L64.5956 15.5961L66.3856 18.3061H65.3356L63.6356 15.6361L63.0756 18.3061H62.1956ZM69.0636 18.3861C68.6503 18.3861 68.2936 18.3028 67.9936 18.1361C67.6936 17.9695 67.4636 17.7328 67.3036 17.4261C67.1436 17.1128 67.0636 16.7461 67.0636 16.3261C67.0636 15.9995 67.1003 15.6728 67.1736 15.3461C67.247 15.0128 67.3536 14.6995 67.4936 14.4061C67.6403 14.1128 67.8203 13.8528 68.0336 13.6261C68.247 13.3928 68.497 13.2095 68.7836 13.0761C69.0703 12.9428 69.3903 12.8761 69.7436 12.8761C70.1636 12.8761 70.5203 12.9595 70.8136 13.1261C71.1136 13.2928 71.3436 13.5328 71.5036 13.8461C71.6636 14.1528 71.7436 14.5195 71.7436 14.9461C71.7436 15.2728 71.707 15.5995 71.6336 15.9261C71.5603 16.2528 71.4503 16.5661 71.3036 16.8661C71.1636 17.1595 70.987 17.4195 70.7736 17.6461C70.5603 17.8728 70.3103 18.0528 70.0236 18.1861C69.737 18.3195 69.417 18.3861 69.0636 18.3861ZM69.1136 17.6561C69.307 17.6561 69.487 17.6161 69.6536 17.5361C69.827 17.4561 69.987 17.3395 70.1336 17.1861C70.2803 17.0261 70.4036 16.8328 70.5036 16.6061C70.6103 16.3728 70.6936 16.1095 70.7536 15.8161C70.8136 15.5228 70.8436 15.1995 70.8436 14.8461C70.8436 14.6461 70.807 14.4528 70.7336 14.2661C70.667 14.0728 70.5536 13.9161 70.3936 13.7961C70.2336 13.6695 70.0203 13.6061 69.7536 13.6061C69.5336 13.6061 69.3303 13.6528 69.1436 13.7461C68.957 13.8395 68.7903 13.9728 68.6436 14.1461C68.497 14.3128 68.3703 14.5128 68.2636 14.7461C68.1636 14.9728 68.087 15.2228 68.0336 15.4961C67.9803 15.7695 67.9536 16.0561 67.9536 16.3561C67.9536 16.7695 68.0536 17.0895 68.2536 17.3161C68.4603 17.5428 68.747 17.6561 69.1136 17.6561ZM74.8084 18.4061C74.3217 18.4061 73.9217 18.3161 73.6084 18.1361C73.2951 17.9495 73.0651 17.6928 72.9184 17.3661C72.7717 17.0328 72.6984 16.6428 72.6984 16.1961C72.6984 15.8228 72.7384 15.4695 72.8184 15.1361C72.8984 14.7961 73.0184 14.4895 73.1784 14.2161C73.3384 13.9361 73.5317 13.6961 73.7584 13.4961C73.9917 13.2895 74.2551 13.1328 74.5484 13.0261C74.8484 12.9128 75.1784 12.8561 75.5384 12.8561C75.9184 12.8561 76.2417 12.9061 76.5084 13.0061C76.7817 13.1061 76.9884 13.2595 77.1284 13.4661C77.2684 13.6661 77.3384 13.9161 77.3384 14.2161C77.3384 14.4761 77.2784 14.6995 77.1584 14.8861C77.0451 15.0728 76.8884 15.2228 76.6884 15.3361C76.4884 15.4495 76.2551 15.5361 75.9884 15.5961V15.6161C76.2817 15.6895 76.5217 15.8128 76.7084 15.9861C76.8951 16.1528 76.9884 16.4095 76.9884 16.7561C76.9884 17.0028 76.9184 17.2561 76.7784 17.5161C76.6451 17.7695 76.4184 17.9828 76.0984 18.1561C75.7784 18.3228 75.3484 18.4061 74.8084 18.4061ZM74.8684 17.6861C75.1617 17.6861 75.4017 17.6428 75.5884 17.5561C75.7751 17.4695 75.9117 17.3561 75.9984 17.2161C76.0917 17.0695 76.1384 16.9128 76.1384 16.7461C76.1384 16.5728 76.0917 16.4328 75.9984 16.3261C75.9117 16.2128 75.7717 16.1295 75.5784 16.0761C75.3917 16.0161 75.1484 15.9861 74.8484 15.9861H73.5884C73.5884 16.0195 73.5884 16.0595 73.5884 16.1061C73.5884 16.1461 73.5884 16.1861 73.5884 16.2261C73.5884 16.7395 73.7051 17.1128 73.9384 17.3461C74.1717 17.5728 74.4817 17.6861 74.8684 17.6861ZM74.7784 15.2761C75.0717 15.2761 75.3451 15.2461 75.5984 15.1861C75.8584 15.1261 76.0651 15.0261 76.2184 14.8861C76.3784 14.7395 76.4584 14.5461 76.4584 14.3061C76.4584 14.1061 76.3884 13.9361 76.2484 13.7961C76.1084 13.6561 75.8751 13.5861 75.5484 13.5861C75.2351 13.5861 74.9517 13.6528 74.6984 13.7861C74.4517 13.9128 74.2417 14.1028 74.0684 14.3561C73.9017 14.6095 73.7751 14.9161 73.6884 15.2761H74.7784Z" fill="black"/>
</svg>
