<svg width="109" height="44" viewBox="0 0 109 44" fill="none" xmlns="http://www.w3.org/2000/svg">
<path d="M67.321 22.5933C79.6202 24.7961 104.659 23.6947 106.421 1.66644M106.421 1.66644L108.478 9.72281M106.421 1.66644L101.12 8.25108" stroke="black" stroke-linecap="round"/>
<path d="M2.63631 11.4809C2.38298 11.4809 2.14298 11.4676 1.91631 11.4409C1.68964 11.4142 1.47631 11.3709 1.27631 11.3109C1.08298 11.2509 0.892975 11.1776 0.706309 11.0909V10.2409C0.946309 10.3809 1.24298 10.5009 1.59631 10.6009C1.95631 10.6942 2.31964 10.7409 2.68631 10.7409C3.01964 10.7409 3.30298 10.7009 3.53631 10.6209C3.77631 10.5409 3.97298 10.4309 4.12631 10.2909C4.27964 10.1509 4.39298 9.99091 4.46631 9.81091C4.53964 9.63091 4.57631 9.4409 4.57631 9.2409C4.57631 8.82757 4.43964 8.52757 4.16631 8.3409C3.89298 8.15424 3.50631 8.0609 3.00631 8.0609H1.98631L2.13631 7.3309H3.08631C3.41298 7.3309 3.72298 7.28424 4.01631 7.1909C4.31631 7.0909 4.56298 6.93424 4.75631 6.7209C4.94964 6.50757 5.04631 6.21757 5.04631 5.8509C5.04631 5.51757 4.94631 5.27424 4.74631 5.1209C4.54631 4.9609 4.27964 4.8809 3.94631 4.8809C3.64631 4.8809 3.34964 4.93424 3.05631 5.04091C2.76964 5.14757 2.48964 5.28757 2.21631 5.46091L1.85631 4.8209C2.19631 4.59424 2.54298 4.42424 2.89631 4.3109C3.25631 4.19757 3.66631 4.1409 4.12631 4.1409C4.51298 4.1409 4.84298 4.20757 5.11631 4.3409C5.38964 4.46757 5.59964 4.6509 5.74631 4.8909C5.89298 5.1309 5.96631 5.4109 5.96631 5.73091C5.96631 6.06424 5.88964 6.36424 5.73631 6.6309C5.58964 6.89757 5.37964 7.1209 5.10631 7.3009C4.83298 7.4809 4.50631 7.61091 4.12631 7.6909V7.71091C4.39298 7.7509 4.62964 7.83757 4.83631 7.9709C5.04964 8.09757 5.21631 8.2709 5.33631 8.49091C5.45631 8.70424 5.51631 8.96757 5.51631 9.28091C5.51631 9.58091 5.45631 9.86424 5.33631 10.1309C5.21631 10.3976 5.03631 10.6309 4.79631 10.8309C4.55631 11.0309 4.25631 11.1909 3.89631 11.3109C3.53631 11.4242 3.11631 11.4809 2.63631 11.4809ZM8.34717 11.4809C7.9605 11.4809 7.63383 11.4009 7.36717 11.2409C7.10717 11.0742 6.9105 10.8442 6.77717 10.5509C6.64383 10.2576 6.57717 9.91757 6.57717 9.53091C6.57717 9.22424 6.6105 8.91757 6.67717 8.61091C6.74383 8.29757 6.84383 8.00091 6.97717 7.7209C7.11717 7.43424 7.28717 7.1809 7.48717 6.9609C7.68717 6.7409 7.91717 6.56757 8.17717 6.4409C8.44383 6.31424 8.7405 6.25091 9.06717 6.25091C9.33383 6.25091 9.55717 6.2909 9.73717 6.3709C9.91717 6.44424 10.0638 6.54757 10.1772 6.6809C10.2972 6.80757 10.3938 6.94757 10.4672 7.1009H10.4972C10.5038 7.04757 10.5072 6.99757 10.5072 6.9509C10.5072 6.89757 10.5072 6.85424 10.5072 6.8209C10.5072 6.0009 10.3972 5.39424 10.1772 5.00091C9.95717 4.60757 9.6205 4.4109 9.16717 4.4109C9.0005 4.4109 8.8205 4.4309 8.62717 4.4709C8.4405 4.5109 8.2705 4.56424 8.11717 4.63091L7.89717 3.98091C8.05717 3.9009 8.26717 3.8309 8.52717 3.7709C8.78717 3.7109 9.03717 3.6809 9.27717 3.6809C9.7705 3.6809 10.1705 3.8009 10.4772 4.0409C10.7905 4.27424 11.0205 4.6209 11.1672 5.0809C11.3205 5.53424 11.3972 6.09424 11.3972 6.76091C11.3972 7.09424 11.3705 7.44424 11.3172 7.8109C11.2638 8.17091 11.1838 8.52757 11.0772 8.88091C10.9705 9.23424 10.8338 9.56757 10.6672 9.88091C10.5072 10.1942 10.3138 10.4709 10.0872 10.7109C9.8605 10.9509 9.60383 11.1409 9.31717 11.2809C9.0305 11.4142 8.70717 11.4809 8.34717 11.4809ZM8.43717 10.7409C8.63717 10.7409 8.8205 10.6942 8.98717 10.6009C9.1605 10.5009 9.31717 10.3676 9.45717 10.2009C9.60383 10.0276 9.73383 9.82757 9.84717 9.60091C9.9605 9.37424 10.0572 9.13091 10.1372 8.8709C10.2238 8.6109 10.2938 8.3409 10.3472 8.0609C10.2872 7.84757 10.2005 7.65757 10.0872 7.4909C9.9805 7.31757 9.84717 7.1809 9.68717 7.08091C9.53383 6.9809 9.35383 6.9309 9.14717 6.9309C8.96717 6.9309 8.79383 6.97424 8.62717 7.06091C8.4605 7.14757 8.30717 7.2709 8.16717 7.43091C8.02717 7.5909 7.90383 7.77757 7.79717 7.9909C7.6905 8.20424 7.60717 8.44091 7.54717 8.70091C7.49383 8.96091 7.46717 9.23424 7.46717 9.52091C7.46717 9.86757 7.5405 10.1576 7.68717 10.3909C7.8405 10.6242 8.0905 10.7409 8.43717 10.7409ZM14.1812 11.4809C13.7679 11.4809 13.4146 11.4009 13.1212 11.2409C12.8346 11.0742 12.6146 10.8409 12.4612 10.5409C12.3146 10.2342 12.2412 9.87424 12.2412 9.46091C12.2412 9.03424 12.3012 8.61424 12.4212 8.2009C12.5479 7.78091 12.7279 7.40091 12.9612 7.06091C13.1946 6.71424 13.4746 6.43757 13.8012 6.2309C14.1346 6.02424 14.5079 5.92091 14.9212 5.92091C15.4279 5.92091 15.8079 6.03091 16.0612 6.25091C16.3212 6.4709 16.4512 6.77757 16.4512 7.1709C16.4512 7.4309 16.3912 7.67757 16.2712 7.91091C16.1512 8.13757 15.9646 8.33757 15.7112 8.51091C15.4579 8.68424 15.1346 8.82091 14.7412 8.92091C14.3479 9.01424 13.8746 9.06091 13.3212 9.06091H13.1512C13.1446 9.12091 13.1379 9.18424 13.1312 9.25091C13.1312 9.31757 13.1312 9.37757 13.1312 9.43091C13.1312 9.83757 13.2312 10.1609 13.4312 10.4009C13.6312 10.6342 13.9346 10.7509 14.3412 10.7509C14.5946 10.7509 14.8346 10.7142 15.0612 10.6409C15.2879 10.5676 15.5346 10.4676 15.8012 10.3409V11.0909C15.5479 11.2042 15.2979 11.2976 15.0512 11.3709C14.8112 11.4442 14.5212 11.4809 14.1812 11.4809ZM13.3512 8.35091C13.7512 8.35091 14.1212 8.31757 14.4612 8.2509C14.8012 8.17757 15.0746 8.06091 15.2812 7.9009C15.4879 7.73424 15.5912 7.51424 15.5912 7.2409C15.5912 7.06757 15.5312 6.92757 15.4112 6.8209C15.2979 6.70757 15.1179 6.6509 14.8712 6.6509C14.6579 6.6509 14.4479 6.71757 14.2412 6.85091C14.0346 6.98424 13.8479 7.17757 13.6812 7.43091C13.5146 7.68424 13.3812 7.9909 13.2812 8.35091H13.3512ZM19.2215 11.4809C18.8281 11.4809 18.4815 11.4076 18.1815 11.2609C17.8815 11.1142 17.6481 10.8942 17.4815 10.6009C17.3148 10.3009 17.2315 9.92757 17.2315 9.48091C17.2315 9.09424 17.2715 8.72757 17.3515 8.38091C17.4381 8.02757 17.5615 7.7009 17.7215 7.4009C17.8815 7.1009 18.0748 6.8409 18.3015 6.62091C18.5281 6.40091 18.7848 6.23091 19.0715 6.11091C19.3648 5.98424 19.6848 5.92091 20.0315 5.92091C20.2648 5.92091 20.4981 5.94424 20.7315 5.9909C20.9648 6.03757 21.1748 6.1009 21.3615 6.1809L21.1115 6.9109C20.9781 6.8509 20.8181 6.79424 20.6315 6.7409C20.4515 6.68757 20.2548 6.6609 20.0415 6.6609C19.8148 6.6609 19.6015 6.7109 19.4015 6.8109C19.2081 6.90424 19.0315 7.03757 18.8715 7.2109C18.7181 7.38424 18.5848 7.5909 18.4715 7.8309C18.3648 8.06424 18.2815 8.3209 18.2215 8.6009C18.1615 8.87424 18.1315 9.16424 18.1315 9.47091C18.1315 9.73757 18.1781 9.96757 18.2715 10.1609C18.3648 10.3542 18.4981 10.5009 18.6715 10.6009C18.8515 10.7009 19.0648 10.7509 19.3115 10.7509C19.5448 10.7509 19.7648 10.7176 19.9715 10.6509C20.1848 10.5842 20.3948 10.5076 20.6015 10.4209V11.1609C20.4148 11.2542 20.2048 11.3309 19.9715 11.3909C19.7448 11.4509 19.4948 11.4809 19.2215 11.4809ZM23.6927 11.4809C23.3194 11.4809 22.996 11.4276 22.7227 11.3209C22.456 11.2076 22.2527 11.0376 22.1127 10.8109C21.9727 10.5776 21.9027 10.2842 21.9027 9.93091C21.9027 9.79757 21.9127 9.64757 21.9327 9.48091C21.9594 9.30757 21.986 9.14757 22.0127 9.00091L22.6427 6.02091H23.5327L23.0227 8.35091C23.196 8.31757 23.3827 8.2909 23.5827 8.2709C23.7827 8.24424 23.9894 8.2309 24.2027 8.2309C24.6094 8.2309 24.936 8.2909 25.1827 8.4109C25.4294 8.5309 25.6094 8.69757 25.7227 8.91091C25.836 9.12424 25.8927 9.37091 25.8927 9.65091C25.8927 9.97757 25.8094 10.2809 25.6427 10.5609C25.4827 10.8342 25.2394 11.0576 24.9127 11.2309C24.5927 11.3976 24.186 11.4809 23.6927 11.4809ZM23.7727 10.7609C23.9927 10.7609 24.1794 10.7342 24.3327 10.6809C24.4927 10.6209 24.6227 10.5442 24.7227 10.4509C24.8294 10.3576 24.906 10.2476 24.9527 10.1209C24.9994 9.99424 25.0227 9.86091 25.0227 9.72091C25.0227 9.56091 24.9894 9.42424 24.9227 9.3109C24.856 9.19091 24.746 9.10091 24.5927 9.04091C24.446 8.98091 24.246 8.9509 23.9927 8.9509C23.786 8.9509 23.5894 8.96091 23.4027 8.98091C23.216 8.99424 23.0427 9.01757 22.8827 9.05091C22.8427 9.23757 22.8127 9.39757 22.7927 9.53091C22.7794 9.65757 22.7727 9.76757 22.7727 9.86091C22.7727 10.1142 22.8427 10.3276 22.9827 10.5009C23.1227 10.6742 23.386 10.7609 23.7727 10.7609ZM29.5403 11.3809L30.6903 5.9909H31.4703L31.3603 6.9809H31.3703C31.497 6.81424 31.6436 6.64757 31.8103 6.48091C31.9836 6.31424 32.1836 6.17424 32.4103 6.06091C32.637 5.94757 32.8936 5.8909 33.1803 5.8909C33.467 5.8909 33.7136 5.94424 33.9203 6.0509C34.127 6.15757 34.2836 6.3109 34.3903 6.5109C34.5036 6.7109 34.5603 6.95424 34.5603 7.2409C34.5603 7.39424 34.547 7.5509 34.5203 7.71091C34.5003 7.8709 34.477 8.0109 34.4503 8.1309L33.7403 11.3809H32.8003L33.5203 8.01091C33.5536 7.85757 33.577 7.7309 33.5903 7.6309C33.6103 7.52424 33.6203 7.42424 33.6203 7.3309C33.6203 7.11757 33.5636 6.95757 33.4503 6.85091C33.337 6.74424 33.167 6.69091 32.9403 6.69091C32.7203 6.69091 32.4803 6.76757 32.2203 6.92091C31.967 7.07424 31.727 7.32424 31.5003 7.6709C31.2803 8.01757 31.107 8.48424 30.9803 9.07091L30.4803 11.3809H29.5403ZM37.5713 11.4609C37.158 11.4609 36.8013 11.3776 36.5013 11.2109C36.2013 11.0442 35.9713 10.8076 35.8113 10.5009C35.6513 10.1876 35.5713 9.82091 35.5713 9.40091C35.5713 9.07424 35.608 8.74757 35.6813 8.42091C35.7546 8.08757 35.8613 7.77424 36.0013 7.4809C36.148 7.18757 36.328 6.92757 36.5413 6.7009C36.7546 6.46757 37.0046 6.28424 37.2913 6.15091C37.578 6.01757 37.898 5.9509 38.2513 5.9509C38.6713 5.9509 39.028 6.03424 39.3213 6.20091C39.6213 6.36757 39.8513 6.60757 40.0113 6.92091C40.1713 7.22757 40.2513 7.59424 40.2513 8.0209C40.2513 8.34757 40.2146 8.67424 40.1413 9.00091C40.068 9.32757 39.958 9.64091 39.8113 9.94091C39.6713 10.2342 39.4946 10.4942 39.2813 10.7209C39.068 10.9476 38.818 11.1276 38.5313 11.2609C38.2446 11.3942 37.9246 11.4609 37.5713 11.4609ZM37.6213 10.7309C37.8146 10.7309 37.9946 10.6909 38.1613 10.6109C38.3346 10.5309 38.4946 10.4142 38.6413 10.2609C38.788 10.1009 38.9113 9.90757 39.0113 9.68091C39.118 9.44757 39.2013 9.18424 39.2613 8.89091C39.3213 8.59757 39.3513 8.27424 39.3513 7.9209C39.3513 7.7209 39.3146 7.52757 39.2413 7.34091C39.1746 7.14757 39.0613 6.9909 38.9013 6.8709C38.7413 6.74424 38.528 6.6809 38.2613 6.6809C38.0413 6.6809 37.838 6.72757 37.6513 6.8209C37.4646 6.91424 37.298 7.04757 37.1513 7.22091C37.0046 7.38757 36.878 7.58757 36.7713 7.82091C36.6713 8.04757 36.5946 8.29757 36.5413 8.5709C36.488 8.84424 36.4613 9.13091 36.4613 9.43091C36.4613 9.84424 36.5613 10.1642 36.7613 10.3909C36.968 10.6176 37.2546 10.7309 37.6213 10.7309ZM40.9361 11.4409C40.8494 11.4409 40.7727 11.4342 40.7061 11.4209C40.6327 11.4076 40.5727 11.3942 40.5261 11.3809V10.6809C40.5594 10.6876 40.5994 10.6942 40.6461 10.7009C40.6861 10.7076 40.7294 10.7109 40.7761 10.7109C40.8961 10.7109 40.9961 10.6876 41.0761 10.6409C41.1627 10.5876 41.2461 10.5009 41.3261 10.3809C41.4061 10.2609 41.4961 10.1009 41.5961 9.90091C41.6627 9.76091 41.7361 9.63091 41.8161 9.51091C41.9027 9.38424 41.9994 9.27424 42.1061 9.18091C42.2194 9.08091 42.3527 9.00424 42.5061 8.9509C42.2927 8.88424 42.1161 8.7909 41.9761 8.6709C41.8427 8.55091 41.7427 8.41091 41.6761 8.2509C41.6094 8.08424 41.5761 7.90757 41.5761 7.7209C41.5761 7.4809 41.6194 7.25757 41.7061 7.0509C41.7994 6.84424 41.9327 6.66424 42.1061 6.5109C42.2861 6.35757 42.5061 6.23757 42.7661 6.15091C43.0327 6.06424 43.3427 6.02091 43.6961 6.02091H45.7361L44.6061 11.3809H43.7361L44.1861 9.27091H43.5361C43.3294 9.27091 43.1594 9.30757 43.0261 9.38091C42.8927 9.44757 42.7794 9.54757 42.6861 9.68091C42.5927 9.81424 42.4961 9.98424 42.3961 10.1909C42.2694 10.4576 42.1427 10.6842 42.0161 10.8709C41.8961 11.0576 41.7527 11.2009 41.5861 11.3009C41.4194 11.3942 41.2027 11.4409 40.9361 11.4409ZM43.4661 8.52091H44.3461L44.7161 6.7709H43.5561C43.3161 6.7709 43.1127 6.8109 42.9461 6.8909C42.7861 6.96424 42.6627 7.0709 42.5761 7.2109C42.4894 7.3509 42.4461 7.5209 42.4461 7.7209C42.4461 8.0209 42.5427 8.23091 42.7361 8.35091C42.9361 8.46424 43.1794 8.52091 43.4661 8.52091ZM48.6383 11.4809C48.1517 11.4809 47.7517 11.3909 47.4383 11.2109C47.125 11.0242 46.895 10.7676 46.7483 10.4409C46.6017 10.1076 46.5283 9.71757 46.5283 9.27091C46.5283 8.89757 46.5683 8.54424 46.6483 8.21091C46.7283 7.8709 46.8483 7.56424 47.0083 7.29091C47.1683 7.0109 47.3617 6.7709 47.5883 6.5709C47.8217 6.36424 48.085 6.20757 48.3783 6.10091C48.6783 5.98757 49.0083 5.9309 49.3683 5.9309C49.7483 5.9309 50.0717 5.9809 50.3383 6.0809C50.6117 6.1809 50.8183 6.33424 50.9583 6.5409C51.0983 6.7409 51.1683 6.9909 51.1683 7.29091C51.1683 7.55091 51.1083 7.77424 50.9883 7.96091C50.875 8.14757 50.7183 8.29757 50.5183 8.4109C50.3183 8.52424 50.085 8.61091 49.8183 8.6709V8.6909C50.1117 8.76424 50.3517 8.88757 50.5383 9.06091C50.725 9.22757 50.8183 9.48424 50.8183 9.83091C50.8183 10.0776 50.7483 10.3309 50.6083 10.5909C50.475 10.8442 50.2483 11.0576 49.9283 11.2309C49.6083 11.3976 49.1783 11.4809 48.6383 11.4809ZM48.6983 10.7609C48.9917 10.7609 49.2317 10.7176 49.4183 10.6309C49.605 10.5442 49.7417 10.4309 49.8283 10.2909C49.9217 10.1442 49.9683 9.98757 49.9683 9.82091C49.9683 9.64757 49.9217 9.50757 49.8283 9.40091C49.7417 9.28757 49.6017 9.20424 49.4083 9.15091C49.2217 9.09091 48.9783 9.06091 48.6783 9.06091H47.4183C47.4183 9.09424 47.4183 9.13424 47.4183 9.18091C47.4183 9.2209 47.4183 9.26091 47.4183 9.30091C47.4183 9.81424 47.535 10.1876 47.7683 10.4209C48.0017 10.6476 48.3117 10.7609 48.6983 10.7609ZM48.6083 8.35091C48.9017 8.35091 49.175 8.32091 49.4283 8.26091C49.6883 8.20091 49.895 8.10091 50.0483 7.96091C50.2083 7.81424 50.2883 7.6209 50.2883 7.38091C50.2883 7.18091 50.2183 7.0109 50.0783 6.8709C49.9383 6.7309 49.705 6.6609 49.3783 6.6609C49.065 6.6609 48.7817 6.72757 48.5283 6.8609C48.2817 6.98757 48.0717 7.17757 47.8983 7.43091C47.7317 7.68424 47.605 7.9909 47.5183 8.35091H48.6083ZM51.4285 11.4509C51.3418 11.4509 51.2618 11.4409 51.1885 11.4209C51.1152 11.4076 51.0585 11.3942 51.0185 11.3809V10.6209C51.0652 10.6409 51.1152 10.6576 51.1685 10.6709C51.2218 10.6776 51.2818 10.6809 51.3485 10.6809C51.5085 10.6809 51.6485 10.6442 51.7685 10.5709C51.8952 10.4909 52.0118 10.3676 52.1185 10.2009C52.2252 10.0342 52.3318 9.81757 52.4385 9.55091C52.5518 9.28424 52.6718 8.96424 52.7985 8.59091C52.9518 8.14424 53.0985 7.75757 53.2385 7.43091C53.3785 7.10424 53.5352 6.83424 53.7085 6.62091C53.8885 6.40091 54.1085 6.23757 54.3685 6.1309C54.6285 6.02424 54.9518 5.97091 55.3385 5.97091C55.5652 5.97091 55.7852 5.98757 55.9985 6.02091C56.2118 6.04757 56.4052 6.08757 56.5785 6.1409L55.4585 11.3809H54.5685L55.5785 6.7509C55.5318 6.73757 55.4752 6.72757 55.4085 6.7209C55.3418 6.71424 55.2718 6.71091 55.1985 6.71091C54.9252 6.71091 54.7018 6.77757 54.5285 6.9109C54.3618 7.03757 54.2085 7.25757 54.0685 7.57091C53.9285 7.88424 53.7618 8.32424 53.5685 8.89091C53.4218 9.30424 53.2818 9.67091 53.1485 9.99091C53.0152 10.3042 52.8718 10.5709 52.7185 10.7909C52.5652 11.0042 52.3852 11.1676 52.1785 11.2809C51.9718 11.3942 51.7218 11.4509 51.4285 11.4509ZM57.1079 11.4409C57.0213 11.4409 56.9446 11.4342 56.8779 11.4209C56.8046 11.4076 56.7446 11.3942 56.6979 11.3809V10.6809C56.7313 10.6876 56.7713 10.6942 56.8179 10.7009C56.8579 10.7076 56.9013 10.7109 56.9479 10.7109C57.0679 10.7109 57.1679 10.6876 57.2479 10.6409C57.3346 10.5876 57.4179 10.5009 57.4979 10.3809C57.5779 10.2609 57.6679 10.1009 57.7679 9.90091C57.8346 9.76091 57.9079 9.63091 57.9879 9.51091C58.0746 9.38424 58.1713 9.27424 58.2779 9.18091C58.3913 9.08091 58.5246 9.00424 58.6779 8.9509C58.4646 8.88424 58.2879 8.7909 58.1479 8.6709C58.0146 8.55091 57.9146 8.41091 57.8479 8.2509C57.7813 8.08424 57.7479 7.90757 57.7479 7.7209C57.7479 7.4809 57.7913 7.25757 57.8779 7.0509C57.9713 6.84424 58.1046 6.66424 58.2779 6.5109C58.4579 6.35757 58.6779 6.23757 58.9379 6.15091C59.2046 6.06424 59.5146 6.02091 59.8679 6.02091H61.9079L60.7779 11.3809H59.9079L60.3579 9.27091H59.7079C59.5013 9.27091 59.3313 9.30757 59.1979 9.38091C59.0646 9.44757 58.9513 9.54757 58.8579 9.68091C58.7646 9.81424 58.6679 9.98424 58.5679 10.1909C58.4413 10.4576 58.3146 10.6842 58.1879 10.8709C58.0679 11.0576 57.9246 11.2009 57.7579 11.3009C57.5913 11.3942 57.3746 11.4409 57.1079 11.4409ZM59.6379 8.52091H60.5179L60.8879 6.7709H59.7279C59.4879 6.7709 59.2846 6.8109 59.1179 6.8909C58.9579 6.96424 58.8346 7.0709 58.7479 7.2109C58.6613 7.3509 58.6179 7.5209 58.6179 7.7209C58.6179 8.0209 58.7146 8.23091 58.9079 8.35091C59.1079 8.46424 59.3513 8.52091 59.6379 8.52091ZM64.6402 11.4809C64.2269 11.4809 63.8735 11.4009 63.5802 11.2409C63.2935 11.0742 63.0735 10.8409 62.9202 10.5409C62.7735 10.2342 62.7002 9.87424 62.7002 9.46091C62.7002 9.03424 62.7602 8.61424 62.8802 8.2009C63.0069 7.78091 63.1869 7.40091 63.4202 7.06091C63.6535 6.71424 63.9335 6.43757 64.2602 6.2309C64.5935 6.02424 64.9669 5.92091 65.3802 5.92091C65.8869 5.92091 66.2669 6.03091 66.5202 6.25091C66.7802 6.4709 66.9102 6.77757 66.9102 7.1709C66.9102 7.4309 66.8502 7.67757 66.7302 7.91091C66.6102 8.13757 66.4235 8.33757 66.1702 8.51091C65.9169 8.68424 65.5935 8.82091 65.2002 8.92091C64.8069 9.01424 64.3335 9.06091 63.7802 9.06091H63.6102C63.6035 9.12091 63.5969 9.18424 63.5902 9.25091C63.5902 9.31757 63.5902 9.37757 63.5902 9.43091C63.5902 9.83757 63.6902 10.1609 63.8902 10.4009C64.0902 10.6342 64.3935 10.7509 64.8002 10.7509C65.0535 10.7509 65.2935 10.7142 65.5202 10.6409C65.7469 10.5676 65.9935 10.4676 66.2602 10.3409V11.0909C66.0069 11.2042 65.7569 11.2976 65.5102 11.3709C65.2702 11.4442 64.9802 11.4809 64.6402 11.4809ZM63.8102 8.35091C64.2102 8.35091 64.5802 8.31757 64.9202 8.2509C65.2602 8.17757 65.5335 8.06091 65.7402 7.9009C65.9469 7.73424 66.0502 7.51424 66.0502 7.2409C66.0502 7.06757 65.9902 6.92757 65.8702 6.8209C65.7569 6.70757 65.5769 6.6509 65.3302 6.6509C65.1169 6.6509 64.9069 6.71757 64.7002 6.85091C64.4935 6.98424 64.3069 7.17757 64.1402 7.43091C63.9735 7.68424 63.8402 7.9909 63.7402 8.35091H63.8102ZM67.4904 11.3809L68.6304 6.02091H69.3504L69.2404 7.01091H69.2904C69.4104 6.84424 69.5504 6.67757 69.7104 6.5109C69.8771 6.34424 70.0671 6.20424 70.2804 6.0909C70.5004 5.97757 70.7471 5.92091 71.0204 5.92091C71.3871 5.92091 71.6671 6.02757 71.8604 6.24091C72.0604 6.44757 72.1804 6.73757 72.2204 7.1109H72.2604C72.3938 6.9109 72.5504 6.7209 72.7304 6.5409C72.9171 6.3609 73.1238 6.21424 73.3504 6.10091C73.5771 5.98091 73.8271 5.92091 74.1004 5.92091C74.5138 5.92091 74.8338 6.03424 75.0604 6.2609C75.2871 6.48757 75.4004 6.81424 75.4004 7.2409C75.4004 7.4009 75.3904 7.5509 75.3704 7.6909C75.3504 7.82424 75.3238 7.96757 75.2904 8.12091L74.6004 11.3809H73.7104L74.4304 8.0209C74.4638 7.86757 74.4871 7.73757 74.5004 7.6309C74.5138 7.52424 74.5204 7.4209 74.5204 7.3209C74.5204 7.1209 74.4638 6.9609 74.3504 6.8409C74.2438 6.7209 74.0738 6.6609 73.8404 6.6609C73.6804 6.6609 73.5104 6.70757 73.3304 6.8009C73.1504 6.88757 72.9738 7.02424 72.8004 7.2109C72.6271 7.39757 72.4704 7.63757 72.3304 7.9309C72.1904 8.21757 72.0771 8.5609 71.9904 8.96091L71.4804 11.3809H70.6004L71.3104 8.0209C71.3438 7.86757 71.3671 7.7409 71.3804 7.64091C71.3938 7.53424 71.4004 7.44091 71.4004 7.36091C71.4004 7.1409 71.3504 6.9709 71.2504 6.85091C71.1504 6.72424 70.9838 6.6609 70.7504 6.6609C70.5904 6.6609 70.4171 6.70424 70.2304 6.7909C70.0504 6.87757 69.8738 7.01757 69.7004 7.2109C69.5271 7.39757 69.3671 7.64424 69.2204 7.9509C69.0738 8.25757 68.9538 8.6309 68.8604 9.07091L68.3704 11.3809H67.4904ZM78.4304 11.4809C78.0371 11.4809 77.6904 11.4076 77.3904 11.2609C77.0904 11.1142 76.8571 10.8942 76.6904 10.6009C76.5238 10.3009 76.4404 9.92757 76.4404 9.48091C76.4404 9.09424 76.4804 8.72757 76.5604 8.38091C76.6471 8.02757 76.7704 7.7009 76.9304 7.4009C77.0904 7.1009 77.2838 6.8409 77.5104 6.62091C77.7371 6.40091 77.9938 6.23091 78.2804 6.11091C78.5738 5.98424 78.8938 5.92091 79.2404 5.92091C79.4738 5.92091 79.7071 5.94424 79.9404 5.9909C80.1738 6.03757 80.3838 6.1009 80.5704 6.1809L80.3204 6.9109C80.1871 6.8509 80.0271 6.79424 79.8404 6.7409C79.6604 6.68757 79.4638 6.6609 79.2504 6.6609C79.0238 6.6609 78.8104 6.7109 78.6104 6.8109C78.4171 6.90424 78.2404 7.03757 78.0804 7.2109C77.9271 7.38424 77.7938 7.5909 77.6804 7.8309C77.5738 8.06424 77.4904 8.3209 77.4304 8.6009C77.3704 8.87424 77.3404 9.16424 77.3404 9.47091C77.3404 9.73757 77.3871 9.96757 77.4804 10.1609C77.5738 10.3542 77.7071 10.5009 77.8804 10.6009C78.0604 10.7009 78.2738 10.7509 78.5204 10.7509C78.7538 10.7509 78.9738 10.7176 79.1804 10.6509C79.3938 10.5842 79.6038 10.5076 79.8104 10.4209V11.1609C79.6238 11.2542 79.4138 11.3309 79.1804 11.3909C78.9538 11.4509 78.7038 11.4809 78.4304 11.4809ZM80.7017 11.4409C80.615 11.4409 80.5384 11.4342 80.4717 11.4209C80.3984 11.4076 80.3384 11.3942 80.2917 11.3809V10.6809C80.325 10.6876 80.365 10.6942 80.4117 10.7009C80.4517 10.7076 80.495 10.7109 80.5417 10.7109C80.6617 10.7109 80.7617 10.6876 80.8417 10.6409C80.9284 10.5876 81.0117 10.5009 81.0917 10.3809C81.1717 10.2609 81.2617 10.1009 81.3617 9.90091C81.4284 9.76091 81.5017 9.63091 81.5817 9.51091C81.6684 9.38424 81.765 9.27424 81.8717 9.18091C81.985 9.08091 82.1184 9.00424 82.2717 8.9509C82.0584 8.88424 81.8817 8.7909 81.7417 8.6709C81.6084 8.55091 81.5084 8.41091 81.4417 8.2509C81.375 8.08424 81.3417 7.90757 81.3417 7.7209C81.3417 7.4809 81.385 7.25757 81.4717 7.0509C81.565 6.84424 81.6984 6.66424 81.8717 6.5109C82.0517 6.35757 82.2717 6.23757 82.5317 6.15091C82.7984 6.06424 83.1084 6.02091 83.4617 6.02091H85.5017L84.3717 11.3809H83.5017L83.9517 9.27091H83.3017C83.095 9.27091 82.925 9.30757 82.7917 9.38091C82.6584 9.44757 82.545 9.54757 82.4517 9.68091C82.3584 9.81424 82.2617 9.98424 82.1617 10.1909C82.035 10.4576 81.9084 10.6842 81.7817 10.8709C81.6617 11.0576 81.5184 11.2009 81.3517 11.3009C81.185 11.3942 80.9684 11.4409 80.7017 11.4409ZM83.2317 8.52091H84.1117L84.4817 6.7709H83.3217C83.0817 6.7709 82.8784 6.8109 82.7117 6.8909C82.5517 6.96424 82.4284 7.0709 82.3417 7.2109C82.255 7.3509 82.2117 7.5209 82.2117 7.7209C82.2117 8.0209 82.3084 8.23091 82.5017 8.35091C82.7017 8.46424 82.945 8.52091 83.2317 8.52091ZM1.00631 21.3809L2.13631 16.0309H3.27631L3.83631 20.2809H3.85631L6.20631 16.0309H7.43631L6.31631 21.3809H5.51631L6.16631 18.3109C6.22631 18.0576 6.28631 17.8042 6.34631 17.5509C6.41298 17.2976 6.47298 17.0642 6.52631 16.8509H6.50631L3.98631 21.3809H3.29631L2.68631 16.8609H2.65631C2.62964 17.0476 2.59298 17.2776 2.54631 17.5509C2.49964 17.8176 2.44964 18.0776 2.39631 18.3309L1.77631 21.3809H1.00631ZM10.1285 21.4809C9.71516 21.4809 9.36183 21.4009 9.0685 21.2409C8.78183 21.0742 8.56183 20.8409 8.4085 20.5409C8.26183 20.2342 8.1885 19.8742 8.1885 19.4609C8.1885 19.0342 8.2485 18.6142 8.3685 18.2009C8.49516 17.7809 8.67516 17.4009 8.9085 17.0609C9.14183 16.7142 9.42183 16.4376 9.7485 16.2309C10.0818 16.0242 10.4552 15.9209 10.8685 15.9209C11.3752 15.9209 11.7552 16.0309 12.0085 16.2509C12.2685 16.4709 12.3985 16.7776 12.3985 17.1709C12.3985 17.4309 12.3385 17.6776 12.2185 17.9109C12.0985 18.1376 11.9118 18.3376 11.6585 18.5109C11.4052 18.6842 11.0818 18.8209 10.6885 18.9209C10.2952 19.0142 9.82183 19.0609 9.2685 19.0609H9.0985C9.09183 19.1209 9.08516 19.1842 9.0785 19.2509C9.0785 19.3176 9.0785 19.3776 9.0785 19.4309C9.0785 19.8376 9.1785 20.1609 9.3785 20.4009C9.5785 20.6342 9.88183 20.7509 10.2885 20.7509C10.5418 20.7509 10.7818 20.7142 11.0085 20.6409C11.2352 20.5676 11.4818 20.4676 11.7485 20.3409V21.0909C11.4952 21.2042 11.2452 21.2976 10.9985 21.3709C10.7585 21.4442 10.4685 21.4809 10.1285 21.4809ZM9.2985 18.3509C9.6985 18.3509 10.0685 18.3176 10.4085 18.2509C10.7485 18.1776 11.0218 18.0609 11.2285 17.9009C11.4352 17.7342 11.5385 17.5142 11.5385 17.2409C11.5385 17.0676 11.4785 16.9276 11.3585 16.8209C11.2452 16.7076 11.0652 16.6509 10.8185 16.6509C10.6052 16.6509 10.3952 16.7176 10.1885 16.8509C9.98183 16.9842 9.79516 17.1776 9.6285 17.4309C9.46183 17.6842 9.3285 17.9909 9.2285 18.3509H9.2985ZM12.9787 21.3809L14.1187 16.0209H14.9887L14.5287 18.2509H17.0487L17.5287 16.0209H18.4087L17.2787 21.3809H16.3887L16.8887 18.9809H14.3687L13.8587 21.3809H12.9787ZM23.5046 21.4609C22.8779 21.4609 22.4013 21.2676 22.0746 20.8809C21.7546 20.4942 21.5946 20.0009 21.5946 19.4009C21.5946 19.3142 21.5946 19.2342 21.5946 19.1609C21.6013 19.0809 21.6046 19.0209 21.6046 18.9809H20.3746L19.8646 21.3809H18.9846L20.1246 16.0209H20.9946L20.5346 18.2509H21.7246C21.8313 17.8709 21.9646 17.5376 22.1246 17.2509C22.2913 16.9576 22.4779 16.7176 22.6846 16.5309C22.8979 16.3376 23.1279 16.1942 23.3746 16.1009C23.6213 16.0009 23.8846 15.9509 24.1646 15.9509C24.5913 15.9509 24.9446 16.0409 25.2246 16.2209C25.5046 16.3942 25.7146 16.6376 25.8546 16.9509C26.0013 17.2576 26.0746 17.6142 26.0746 18.0209C26.0746 18.3676 26.0379 18.7076 25.9646 19.0409C25.8979 19.3742 25.7946 19.6876 25.6546 19.9809C25.5146 20.2676 25.3413 20.5242 25.1346 20.7509C24.9279 20.9709 24.6879 21.1442 24.4146 21.2709C24.1413 21.3976 23.8379 21.4609 23.5046 21.4609ZM23.5646 20.7309C23.7446 20.7309 23.9146 20.6876 24.0746 20.6009C24.2346 20.5142 24.3813 20.3909 24.5146 20.2309C24.6546 20.0709 24.7713 19.8776 24.8646 19.6509C24.9646 19.4176 25.0413 19.1576 25.0946 18.8709C25.1479 18.5776 25.1746 18.2609 25.1746 17.9209C25.1746 17.5476 25.0846 17.2476 24.9046 17.0209C24.7313 16.7942 24.4813 16.6809 24.1546 16.6809C23.9279 16.6809 23.7246 16.7342 23.5446 16.8409C23.3646 16.9476 23.2079 17.0942 23.0746 17.2809C22.9413 17.4609 22.8313 17.6676 22.7446 17.9009C22.6579 18.1342 22.5913 18.3842 22.5446 18.6509C22.5046 18.9109 22.4846 19.1709 22.4846 19.4309C22.4846 19.8176 22.5713 20.1309 22.7446 20.3709C22.9246 20.6109 23.1979 20.7309 23.5646 20.7309ZM31.7491 21.4809C31.3425 21.4809 30.9958 21.3976 30.7091 21.2309C30.4291 21.0576 30.2125 20.8042 30.0591 20.4709C29.9125 20.1309 29.8391 19.7142 29.8391 19.2209C29.8391 18.9676 29.8591 18.6842 29.8991 18.3709C29.9391 18.0576 29.9991 17.7309 30.0791 17.3909C30.1658 17.0509 30.2758 16.7176 30.4091 16.3909C30.5425 16.0576 30.7025 15.7476 30.8891 15.4609C31.0758 15.1742 31.2925 14.9276 31.5391 14.7209C31.7925 14.5076 32.0758 14.3542 32.3891 14.2609C32.5091 14.2209 32.6825 14.1776 32.9091 14.1309C33.1425 14.0776 33.3958 14.0242 33.6691 13.9709C33.9425 13.9109 34.2025 13.8609 34.4491 13.8209C34.6958 13.7809 34.8925 13.7509 35.0391 13.7309L35.1391 14.4509C34.9525 14.4776 34.7125 14.5176 34.4191 14.5709C34.1258 14.6242 33.8291 14.6842 33.5291 14.7509C33.2358 14.8109 32.9858 14.8742 32.7791 14.9409C32.4991 15.0276 32.2425 15.1776 32.0091 15.3909C31.7825 15.5976 31.5825 15.8609 31.4091 16.1809C31.2358 16.4942 31.0925 16.8642 30.9791 17.2909L31.0091 17.3009C31.1891 17.0876 31.4325 16.8842 31.7391 16.6909C32.0458 16.4976 32.3958 16.4009 32.7891 16.4009C33.2958 16.4009 33.6725 16.5609 33.9191 16.8809C34.1725 17.1942 34.2991 17.6342 34.2991 18.2009C34.2991 18.5276 34.2691 18.8509 34.2091 19.1709C34.1491 19.4842 34.0525 19.7809 33.9191 20.0609C33.7925 20.3409 33.6291 20.5876 33.4291 20.8009C33.2291 21.0142 32.9891 21.1809 32.7091 21.3009C32.4358 21.4209 32.1158 21.4809 31.7491 21.4809ZM31.8291 20.7509C32.0625 20.7509 32.2658 20.6976 32.4391 20.5909C32.6191 20.4842 32.7691 20.3409 32.8891 20.1609C33.0091 19.9809 33.1058 19.7842 33.1791 19.5709C33.2591 19.3509 33.3158 19.1309 33.3491 18.9109C33.3825 18.6842 33.3991 18.4776 33.3991 18.2909C33.3991 17.8909 33.3291 17.5976 33.1891 17.4109C33.0491 17.2242 32.8391 17.1309 32.5591 17.1309C32.3125 17.1309 32.0758 17.1909 31.8491 17.3109C31.6291 17.4309 31.4325 17.5742 31.2591 17.7409C31.0858 17.9009 30.9458 18.0542 30.8391 18.2009C30.8125 18.3809 30.7858 18.5609 30.7591 18.7409C30.7391 18.9209 30.7291 19.0909 30.7291 19.2509C30.7291 19.5509 30.7658 19.8142 30.8391 20.0409C30.9125 20.2609 31.0291 20.4342 31.1891 20.5609C31.3491 20.6876 31.5625 20.7509 31.8291 20.7509ZM34.5483 23.7809C34.3883 23.7809 34.2583 23.7709 34.1583 23.7509C34.0517 23.7309 33.9517 23.7076 33.8583 23.6809V22.9709C33.9517 22.9976 34.0517 23.0176 34.1583 23.0309C34.265 23.0509 34.3783 23.0609 34.4983 23.0609C34.7717 23.0609 35.0017 22.9776 35.1883 22.8109C35.3817 22.6442 35.565 22.4009 35.7383 22.0809L36.0883 21.4609L35.2783 16.0209H36.1583L36.5083 18.6709C36.5417 18.8842 36.565 19.1209 36.5783 19.3809C36.5983 19.6342 36.6117 19.8776 36.6183 20.1109C36.6317 20.3376 36.6383 20.5209 36.6383 20.6609H36.6683C36.715 20.5542 36.7817 20.3942 36.8683 20.1809C36.9617 19.9676 37.0617 19.7476 37.1683 19.5209C37.275 19.2942 37.3683 19.1076 37.4483 18.9609L39.0083 16.0209H39.9483L36.5483 22.2809C36.3683 22.6142 36.185 22.8909 35.9983 23.1109C35.8117 23.3376 35.6017 23.5042 35.3683 23.6109C35.135 23.7242 34.8617 23.7809 34.5483 23.7809ZM39.2463 23.7809L40.8863 16.0209H41.6063L41.4863 17.0209H41.5263C41.6863 16.8209 41.8563 16.6409 42.0363 16.4809C42.2163 16.3142 42.413 16.1809 42.6263 16.0809C42.8396 15.9809 43.0696 15.9309 43.3163 15.9309C43.603 15.9309 43.853 16.0009 44.0663 16.1409C44.2863 16.2742 44.4563 16.4776 44.5763 16.7509C44.703 17.0176 44.7663 17.3542 44.7663 17.7609C44.7663 18.1542 44.7263 18.5342 44.6463 18.9009C44.573 19.2676 44.4596 19.6076 44.3063 19.9209C44.1596 20.2276 43.9796 20.5009 43.7663 20.7409C43.5596 20.9742 43.3196 21.1576 43.0463 21.2909C42.773 21.4176 42.4763 21.4809 42.1563 21.4809C41.9163 21.4809 41.7063 21.4376 41.5263 21.3509C41.353 21.2642 41.2063 21.1509 41.0863 21.0109C40.9663 20.8709 40.8663 20.7209 40.7863 20.5609H40.7363C40.7296 20.6676 40.713 20.8176 40.6863 21.0109C40.6596 21.1976 40.633 21.3509 40.6063 21.4709L40.1163 23.7809H39.2463ZM42.0863 20.7509C42.2996 20.7509 42.4963 20.6976 42.6763 20.5909C42.863 20.4776 43.0296 20.3242 43.1763 20.1309C43.323 19.9309 43.4463 19.7042 43.5463 19.4509C43.653 19.1909 43.733 18.9176 43.7863 18.6309C43.8396 18.3376 43.8663 18.0409 43.8663 17.7409C43.8663 17.3809 43.793 17.1109 43.6463 16.9309C43.5063 16.7509 43.2963 16.6609 43.0163 16.6609C42.8696 16.6609 42.7196 16.6976 42.5663 16.7709C42.413 16.8442 42.263 16.9509 42.1163 17.0909C41.9696 17.2242 41.833 17.3842 41.7063 17.5709C41.5796 17.7576 41.4663 17.9642 41.3663 18.1909C41.273 18.4109 41.1996 18.6476 41.1463 18.9009C41.093 19.1476 41.0663 19.4042 41.0663 19.6709C41.0663 19.9909 41.1496 20.2509 41.3163 20.4509C41.483 20.6509 41.7396 20.7509 42.0863 20.7509ZM47.2373 21.4809C46.9307 21.4809 46.644 21.4342 46.3773 21.3409C46.1173 21.2476 45.9073 21.1009 45.7473 20.9009C45.5873 20.7009 45.5073 20.4409 45.5073 20.1209C45.5073 19.8609 45.5573 19.6342 45.6573 19.4409C45.764 19.2476 45.904 19.0842 46.0773 18.9509C46.2507 18.8109 46.444 18.6942 46.6573 18.6009C46.8707 18.5009 47.084 18.4109 47.2973 18.3309C47.564 18.2242 47.8007 18.1242 48.0073 18.0309C48.214 17.9309 48.374 17.8176 48.4873 17.6909C48.6073 17.5576 48.6673 17.4009 48.6673 17.2209C48.6673 17.0542 48.614 16.9209 48.5073 16.8209C48.4007 16.7142 48.2107 16.6609 47.9373 16.6609C47.6773 16.6609 47.4207 16.6976 47.1673 16.7709C46.914 16.8376 46.6807 16.9176 46.4673 17.0109L46.2273 16.3109C46.4607 16.2242 46.7273 16.1409 47.0273 16.0609C47.3273 15.9742 47.6607 15.9309 48.0273 15.9309C48.3273 15.9309 48.5907 15.9742 48.8173 16.0609C49.0507 16.1409 49.2307 16.2709 49.3573 16.4509C49.4907 16.6309 49.5573 16.8709 49.5573 17.1709C49.5573 17.4042 49.5107 17.6109 49.4173 17.7909C49.324 17.9642 49.1973 18.1176 49.0373 18.2509C48.8773 18.3776 48.6973 18.4909 48.4973 18.5909C48.2973 18.6842 48.0907 18.7709 47.8773 18.8509C47.5773 18.9642 47.314 19.0742 47.0873 19.1809C46.8673 19.2809 46.6973 19.3976 46.5773 19.5309C46.4573 19.6642 46.3973 19.8376 46.3973 20.0509C46.3973 20.2642 46.474 20.4342 46.6273 20.5609C46.7873 20.6876 47.034 20.7509 47.3673 20.7509C47.5473 20.7509 47.724 20.7342 47.8973 20.7009C48.0707 20.6609 48.2407 20.6109 48.4073 20.5509C48.574 20.4842 48.7373 20.4142 48.8973 20.3409V21.1109C48.664 21.2176 48.414 21.3076 48.1473 21.3809C47.8807 21.4476 47.5773 21.4809 47.2373 21.4809ZM52.2672 21.4809C51.8538 21.4809 51.5005 21.4009 51.2072 21.2409C50.9205 21.0742 50.7005 20.8409 50.5472 20.5409C50.4005 20.2342 50.3272 19.8742 50.3272 19.4609C50.3272 19.0342 50.3872 18.6142 50.5072 18.2009C50.6338 17.7809 50.8138 17.4009 51.0472 17.0609C51.2805 16.7142 51.5605 16.4376 51.8872 16.2309C52.2205 16.0242 52.5938 15.9209 53.0072 15.9209C53.5138 15.9209 53.8938 16.0309 54.1472 16.2509C54.4072 16.4709 54.5372 16.7776 54.5372 17.1709C54.5372 17.4309 54.4772 17.6776 54.3572 17.9109C54.2372 18.1376 54.0505 18.3376 53.7972 18.5109C53.5438 18.6842 53.2205 18.8209 52.8272 18.9209C52.4338 19.0142 51.9605 19.0609 51.4072 19.0609H51.2372C51.2305 19.1209 51.2238 19.1842 51.2172 19.2509C51.2172 19.3176 51.2172 19.3776 51.2172 19.4309C51.2172 19.8376 51.3172 20.1609 51.5172 20.4009C51.7172 20.6342 52.0205 20.7509 52.4272 20.7509C52.6805 20.7509 52.9205 20.7142 53.1472 20.6409C53.3738 20.5676 53.6205 20.4676 53.8872 20.3409V21.0909C53.6338 21.2042 53.3838 21.2976 53.1372 21.3709C52.8972 21.4442 52.6072 21.4809 52.2672 21.4809ZM51.4372 18.3509C51.8372 18.3509 52.2072 18.3176 52.5472 18.2509C52.8872 18.1776 53.1605 18.0609 53.3672 17.9009C53.5738 17.7342 53.6772 17.5142 53.6772 17.2409C53.6772 17.0676 53.6172 16.9276 53.4972 16.8209C53.3838 16.7076 53.2038 16.6509 52.9572 16.6509C52.7438 16.6509 52.5338 16.7176 52.3272 16.8509C52.1205 16.9842 51.9338 17.1776 51.7672 17.4309C51.6005 17.6842 51.4672 17.9909 51.3672 18.3509H51.4372ZM54.6174 23.7809L56.2574 16.0209H56.9774L56.8574 17.0209H56.8974C57.0574 16.8209 57.2274 16.6409 57.4074 16.4809C57.5874 16.3142 57.7841 16.1809 57.9974 16.0809C58.2107 15.9809 58.4407 15.9309 58.6874 15.9309C58.9741 15.9309 59.2241 16.0009 59.4374 16.1409C59.6574 16.2742 59.8274 16.4776 59.9474 16.7509C60.0741 17.0176 60.1374 17.3542 60.1374 17.7609C60.1374 18.1542 60.0974 18.5342 60.0174 18.9009C59.9441 19.2676 59.8307 19.6076 59.6774 19.9209C59.5307 20.2276 59.3507 20.5009 59.1374 20.7409C58.9307 20.9742 58.6907 21.1576 58.4174 21.2909C58.1441 21.4176 57.8474 21.4809 57.5274 21.4809C57.2874 21.4809 57.0774 21.4376 56.8974 21.3509C56.7241 21.2642 56.5774 21.1509 56.4574 21.0109C56.3374 20.8709 56.2374 20.7209 56.1574 20.5609H56.1074C56.1007 20.6676 56.0841 20.8176 56.0574 21.0109C56.0307 21.1976 56.0041 21.3509 55.9774 21.4709L55.4874 23.7809H54.6174ZM57.4574 20.7509C57.6707 20.7509 57.8674 20.6976 58.0474 20.5909C58.2341 20.4776 58.4007 20.3242 58.5474 20.1309C58.6941 19.9309 58.8174 19.7042 58.9174 19.4509C59.0241 19.1909 59.1041 18.9176 59.1574 18.6309C59.2107 18.3376 59.2374 18.0409 59.2374 17.7409C59.2374 17.3809 59.1641 17.1109 59.0174 16.9309C58.8774 16.7509 58.6674 16.6609 58.3874 16.6609C58.2407 16.6609 58.0907 16.6976 57.9374 16.7709C57.7841 16.8442 57.6341 16.9509 57.4874 17.0909C57.3407 17.2242 57.2041 17.3842 57.0774 17.5709C56.9507 17.7576 56.8374 17.9642 56.7374 18.1909C56.6441 18.4109 56.5707 18.6476 56.5174 18.9009C56.4641 19.1476 56.4374 19.4042 56.4374 19.6709C56.4374 19.9909 56.5207 20.2509 56.6874 20.4509C56.8541 20.6509 57.1107 20.7509 57.4574 20.7509ZM3.30631 31.4809C2.81964 31.4809 2.41964 31.3909 2.10631 31.2109C1.79298 31.0242 1.56298 30.7676 1.41631 30.4409C1.26964 30.1076 1.19631 29.7176 1.19631 29.2709C1.19631 28.8976 1.23631 28.5442 1.31631 28.2109C1.39631 27.8709 1.51631 27.5642 1.67631 27.2909C1.83631 27.0109 2.02964 26.7709 2.25631 26.5709C2.48964 26.3642 2.75298 26.2076 3.04631 26.1009C3.34631 25.9876 3.67631 25.9309 4.03631 25.9309C4.41631 25.9309 4.73964 25.9809 5.00631 26.0809C5.27964 26.1809 5.48631 26.3342 5.62631 26.5409C5.76631 26.7409 5.83631 26.9909 5.83631 27.2909C5.83631 27.5509 5.77631 27.7742 5.65631 27.9609C5.54298 28.1476 5.38631 28.2976 5.18631 28.4109C4.98631 28.5242 4.75298 28.6109 4.48631 28.6709V28.6909C4.77964 28.7642 5.01964 28.8876 5.20631 29.0609C5.39298 29.2276 5.48631 29.4842 5.48631 29.8309C5.48631 30.0776 5.41631 30.3309 5.27631 30.5909C5.14298 30.8442 4.91631 31.0576 4.59631 31.2309C4.27631 31.3976 3.84631 31.4809 3.30631 31.4809ZM3.36631 30.7609C3.65964 30.7609 3.89964 30.7176 4.08631 30.6309C4.27298 30.5442 4.40964 30.4309 4.49631 30.2909C4.58964 30.1442 4.63631 29.9876 4.63631 29.8209C4.63631 29.6476 4.58964 29.5076 4.49631 29.4009C4.40964 29.2876 4.26964 29.2042 4.07631 29.1509C3.88964 29.0909 3.64631 29.0609 3.34631 29.0609H2.08631C2.08631 29.0942 2.08631 29.1342 2.08631 29.1809C2.08631 29.2209 2.08631 29.2609 2.08631 29.3009C2.08631 29.8142 2.20298 30.1876 2.43631 30.4209C2.66964 30.6476 2.97964 30.7609 3.36631 30.7609ZM3.27631 28.3509C3.56964 28.3509 3.84298 28.3209 4.09631 28.2609C4.35631 28.2009 4.56298 28.1009 4.71631 27.9609C4.87631 27.8142 4.95631 27.6209 4.95631 27.3809C4.95631 27.1809 4.88631 27.0109 4.74631 26.8709C4.60631 26.7309 4.37298 26.6609 4.04631 26.6609C3.73298 26.6609 3.44964 26.7276 3.19631 26.8609C2.94964 26.9876 2.73964 27.1776 2.56631 27.4309C2.39964 27.6842 2.27298 27.9909 2.18631 28.3509H3.27631ZM9.19967 31.3809L10.3297 26.0309H11.4697L12.0297 30.2809H12.0497L14.3997 26.0309H15.6297L14.5097 31.3809H13.7097L14.3597 28.3109C14.4197 28.0576 14.4797 27.8042 14.5397 27.5509C14.6063 27.2976 14.6663 27.0642 14.7197 26.8509H14.6997L12.1797 31.3809H11.4897L10.8797 26.8609H10.8497C10.823 27.0476 10.7863 27.2776 10.7397 27.5509C10.693 27.8176 10.643 28.0776 10.5897 28.3309L9.96967 31.3809H9.19967ZM18.3819 31.4609C17.9685 31.4609 17.6119 31.3776 17.3119 31.2109C17.0119 31.0442 16.7819 30.8076 16.6219 30.5009C16.4619 30.1876 16.3819 29.8209 16.3819 29.4009C16.3819 29.0742 16.4185 28.7476 16.4919 28.4209C16.5652 28.0876 16.6719 27.7742 16.8119 27.4809C16.9585 27.1876 17.1385 26.9276 17.3519 26.7009C17.5652 26.4676 17.8152 26.2842 18.1019 26.1509C18.3885 26.0176 18.7085 25.9509 19.0619 25.9509C19.4819 25.9509 19.8385 26.0342 20.1319 26.2009C20.4319 26.3676 20.6619 26.6076 20.8219 26.9209C20.9819 27.2276 21.0619 27.5942 21.0619 28.0209C21.0619 28.3476 21.0252 28.6742 20.9519 29.0009C20.8785 29.3276 20.7685 29.6409 20.6219 29.9409C20.4819 30.2342 20.3052 30.4942 20.0919 30.7209C19.8785 30.9476 19.6285 31.1276 19.3419 31.2609C19.0552 31.3942 18.7352 31.4609 18.3819 31.4609ZM18.4319 30.7309C18.6252 30.7309 18.8052 30.6909 18.9719 30.6109C19.1452 30.5309 19.3052 30.4142 19.4519 30.2609C19.5985 30.1009 19.7219 29.9076 19.8219 29.6809C19.9285 29.4476 20.0119 29.1842 20.0719 28.8909C20.1319 28.5976 20.1619 28.2742 20.1619 27.9209C20.1619 27.7209 20.1252 27.5276 20.0519 27.3409C19.9852 27.1476 19.8719 26.9909 19.7119 26.8709C19.5519 26.7442 19.3385 26.6809 19.0719 26.6809C18.8519 26.6809 18.6485 26.7276 18.4619 26.8209C18.2752 26.9142 18.1085 27.0476 17.9619 27.2209C17.8152 27.3876 17.6885 27.5876 17.5819 27.8209C17.4819 28.0476 17.4052 28.2976 17.3519 28.5709C17.2985 28.8442 17.2719 29.1309 17.2719 29.4309C17.2719 29.8442 17.3719 30.1642 17.5719 30.3909C17.7785 30.6176 18.0652 30.7309 18.4319 30.7309ZM23.9366 31.4809C23.53 31.4809 23.1833 31.3976 22.8966 31.2309C22.6166 31.0576 22.4 30.8042 22.2466 30.4709C22.1 30.1309 22.0266 29.7142 22.0266 29.2209C22.0266 28.9676 22.0466 28.6842 22.0866 28.3709C22.1266 28.0576 22.1866 27.7309 22.2666 27.3909C22.3533 27.0509 22.4633 26.7176 22.5966 26.3909C22.73 26.0576 22.89 25.7476 23.0766 25.4609C23.2633 25.1742 23.48 24.9276 23.7266 24.7209C23.98 24.5076 24.2633 24.3542 24.5766 24.2609C24.6966 24.2209 24.87 24.1776 25.0966 24.1309C25.33 24.0776 25.5833 24.0242 25.8566 23.9709C26.13 23.9109 26.39 23.8609 26.6366 23.8209C26.8833 23.7809 27.08 23.7509 27.2266 23.7309L27.3266 24.4509C27.14 24.4776 26.9 24.5176 26.6066 24.5709C26.3133 24.6242 26.0166 24.6842 25.7166 24.7509C25.4233 24.8109 25.1733 24.8742 24.9666 24.9409C24.6866 25.0276 24.43 25.1776 24.1966 25.3909C23.97 25.5976 23.77 25.8609 23.5966 26.1809C23.4233 26.4942 23.28 26.8642 23.1666 27.2909L23.1966 27.3009C23.3766 27.0876 23.62 26.8842 23.9266 26.6909C24.2333 26.4976 24.5833 26.4009 24.9766 26.4009C25.4833 26.4009 25.86 26.5609 26.1066 26.8809C26.36 27.1942 26.4866 27.6342 26.4866 28.2009C26.4866 28.5276 26.4566 28.8509 26.3966 29.1709C26.3366 29.4842 26.24 29.7809 26.1066 30.0609C25.98 30.3409 25.8166 30.5876 25.6166 30.8009C25.4166 31.0142 25.1766 31.1809 24.8966 31.3009C24.6233 31.4209 24.3033 31.4809 23.9366 31.4809ZM24.0166 30.7509C24.25 30.7509 24.4533 30.6976 24.6266 30.5909C24.8066 30.4842 24.9566 30.3409 25.0766 30.1609C25.1966 29.9809 25.2933 29.7842 25.3666 29.5709C25.4466 29.3509 25.5033 29.1309 25.5366 28.9109C25.57 28.6842 25.5866 28.4776 25.5866 28.2909C25.5866 27.8909 25.5166 27.5976 25.3766 27.4109C25.2366 27.2242 25.0266 27.1309 24.7466 27.1309C24.5 27.1309 24.2633 27.1909 24.0366 27.3109C23.8166 27.4309 23.62 27.5742 23.4466 27.7409C23.2733 27.9009 23.1333 28.0542 23.0266 28.2009C23 28.3809 22.9733 28.5609 22.9466 28.7409C22.9266 28.9209 22.9166 29.0909 22.9166 29.2509C22.9166 29.5509 22.9533 29.8142 23.0266 30.0409C23.1 30.2609 23.2166 30.4342 23.3766 30.5609C23.5366 30.6876 23.75 30.7509 24.0166 30.7509ZM28.8758 31.4809C28.6092 31.4809 28.3725 31.4309 28.1658 31.3309C27.9658 31.2309 27.8092 31.0809 27.6958 30.8809C27.5892 30.6809 27.5358 30.4376 27.5358 30.1509C27.5358 29.9976 27.5458 29.8542 27.5658 29.7209C27.5925 29.5809 27.6192 29.4376 27.6458 29.2909L28.3458 26.0209H29.2358L28.5158 29.3909C28.4892 29.5376 28.4658 29.6642 28.4458 29.7709C28.4325 29.8776 28.4258 29.9742 28.4258 30.0609C28.4258 30.2742 28.4792 30.4442 28.5858 30.5709C28.6992 30.6909 28.8792 30.7509 29.1258 30.7509C29.3525 30.7509 29.5958 30.6709 29.8558 30.5109C30.1225 30.3509 30.3692 30.0942 30.5958 29.7409C30.8225 29.3876 30.9992 28.9176 31.1258 28.3309L31.6158 26.0209H32.4858L31.3458 31.3809H30.6258L30.7358 30.3909H30.6858C30.5592 30.5509 30.4092 30.7176 30.2358 30.8909C30.0692 31.0576 29.8725 31.1976 29.6458 31.3109C29.4258 31.4242 29.1692 31.4809 28.8758 31.4809ZM32.7469 31.4509C32.6602 31.4509 32.5802 31.4409 32.5069 31.4209C32.4335 31.4076 32.3769 31.3942 32.3369 31.3809V30.6209C32.3835 30.6409 32.4335 30.6576 32.4869 30.6709C32.5402 30.6776 32.6002 30.6809 32.6669 30.6809C32.8269 30.6809 32.9669 30.6442 33.0869 30.5709C33.2135 30.4909 33.3302 30.3676 33.4369 30.2009C33.5435 30.0342 33.6502 29.8176 33.7569 29.5509C33.8702 29.2842 33.9902 28.9642 34.1169 28.5909C34.2702 28.1442 34.4169 27.7576 34.5569 27.4309C34.6969 27.1042 34.8535 26.8342 35.0269 26.6209C35.2069 26.4009 35.4269 26.2376 35.6869 26.1309C35.9469 26.0242 36.2702 25.9709 36.6569 25.9709C36.8835 25.9709 37.1035 25.9876 37.3169 26.0209C37.5302 26.0476 37.7235 26.0876 37.8969 26.1409L36.7769 31.3809H35.8869L36.8969 26.7509C36.8502 26.7376 36.7935 26.7276 36.7269 26.7209C36.6602 26.7142 36.5902 26.7109 36.5169 26.7109C36.2435 26.7109 36.0202 26.7776 35.8469 26.9109C35.6802 27.0376 35.5269 27.2576 35.3869 27.5709C35.2469 27.8842 35.0802 28.3242 34.8869 28.8909C34.7402 29.3042 34.6002 29.6709 34.4669 29.9909C34.3335 30.3042 34.1902 30.5709 34.0369 30.7909C33.8835 31.0042 33.7035 31.1676 33.4969 31.2809C33.2902 31.3942 33.0402 31.4509 32.7469 31.4509ZM40.6263 31.4809C40.253 31.4809 39.9296 31.4276 39.6563 31.3209C39.3896 31.2076 39.1863 31.0376 39.0463 30.8109C38.9063 30.5776 38.8363 30.2842 38.8363 29.9309C38.8363 29.7976 38.8463 29.6476 38.8663 29.4809C38.893 29.3076 38.9196 29.1476 38.9463 29.0009L39.5763 26.0209H40.4663L39.9563 28.3509C40.1296 28.3176 40.3163 28.2909 40.5163 28.2709C40.7163 28.2442 40.923 28.2309 41.1363 28.2309C41.543 28.2309 41.8696 28.2909 42.1163 28.4109C42.363 28.5309 42.543 28.6976 42.6563 28.9109C42.7696 29.1242 42.8263 29.3709 42.8263 29.6509C42.8263 29.9776 42.743 30.2809 42.5763 30.5609C42.4163 30.8342 42.173 31.0576 41.8463 31.2309C41.5263 31.3976 41.1196 31.4809 40.6263 31.4809ZM40.7063 30.7609C40.9263 30.7609 41.113 30.7342 41.2663 30.6809C41.4263 30.6209 41.5563 30.5442 41.6563 30.4509C41.763 30.3576 41.8396 30.2476 41.8863 30.1209C41.933 29.9942 41.9563 29.8609 41.9563 29.7209C41.9563 29.5609 41.923 29.4242 41.8563 29.3109C41.7896 29.1909 41.6796 29.1009 41.5263 29.0409C41.3796 28.9809 41.1796 28.9509 40.9263 28.9509C40.7196 28.9509 40.523 28.9609 40.3363 28.9809C40.1496 28.9942 39.9763 29.0176 39.8163 29.0509C39.7763 29.2376 39.7463 29.3976 39.7263 29.5309C39.713 29.6576 39.7063 29.7676 39.7063 29.8609C39.7063 30.1142 39.7763 30.3276 39.9163 30.5009C40.0563 30.6742 40.3196 30.7609 40.7063 30.7609ZM43.7307 31.3809L44.8707 26.0209H45.7407L45.2807 28.2509H47.8007L48.2807 26.0209H49.1607L48.0307 31.3809H47.1407L47.6407 28.9809H45.1207L44.6107 31.3809H43.7307ZM51.9365 31.4609C51.5232 31.4609 51.1665 31.3776 50.8665 31.2109C50.5665 31.0442 50.3365 30.8076 50.1765 30.5009C50.0165 30.1876 49.9365 29.8209 49.9365 29.4009C49.9365 29.0742 49.9732 28.7476 50.0465 28.4209C50.1199 28.0876 50.2265 27.7742 50.3665 27.4809C50.5132 27.1876 50.6932 26.9276 50.9065 26.7009C51.1199 26.4676 51.3699 26.2842 51.6565 26.1509C51.9432 26.0176 52.2632 25.9509 52.6165 25.9509C53.0365 25.9509 53.3932 26.0342 53.6865 26.2009C53.9865 26.3676 54.2165 26.6076 54.3765 26.9209C54.5365 27.2276 54.6165 27.5942 54.6165 28.0209C54.6165 28.3476 54.5799 28.6742 54.5065 29.0009C54.4332 29.3276 54.3232 29.6409 54.1765 29.9409C54.0365 30.2342 53.8599 30.4942 53.6465 30.7209C53.4332 30.9476 53.1832 31.1276 52.8965 31.2609C52.6099 31.3942 52.2899 31.4609 51.9365 31.4609ZM51.9865 30.7309C52.1799 30.7309 52.3599 30.6909 52.5265 30.6109C52.6999 30.5309 52.8599 30.4142 53.0065 30.2609C53.1532 30.1009 53.2765 29.9076 53.3765 29.6809C53.4832 29.4476 53.5665 29.1842 53.6265 28.8909C53.6865 28.5976 53.7165 28.2742 53.7165 27.9209C53.7165 27.7209 53.6799 27.5276 53.6065 27.3409C53.5399 27.1476 53.4265 26.9909 53.2665 26.8709C53.1065 26.7442 52.8932 26.6809 52.6265 26.6809C52.4065 26.6809 52.2032 26.7276 52.0165 26.8209C51.8299 26.9142 51.6632 27.0476 51.5165 27.2209C51.3699 27.3876 51.2432 27.5876 51.1365 27.8209C51.0365 28.0476 50.9599 28.2976 50.9065 28.5709C50.8532 28.8442 50.8265 29.1309 50.8265 29.4309C50.8265 29.8442 50.9265 30.1642 51.1265 30.3909C51.3332 30.6176 51.6199 30.7309 51.9865 30.7309ZM55.3813 31.3809L56.5113 26.0309H57.6513L58.2113 30.2809H58.2313L60.5813 26.0309H61.8113L60.6913 31.3809H59.8913L60.5413 28.3109C60.6013 28.0576 60.6613 27.8042 60.7213 27.5509C60.788 27.2976 60.848 27.0642 60.9013 26.8509H60.8813L58.3613 31.3809H57.6713L57.0613 26.8609H57.0313C57.0046 27.0476 56.968 27.2776 56.9213 27.5509C56.8746 27.8176 56.8246 28.0776 56.7713 28.3309L56.1513 31.3809H55.3813ZM0.496309 43.7809L2.13631 36.0209H2.85631L2.73631 37.0209H2.77631C2.93631 36.8209 3.10631 36.6409 3.28631 36.4809C3.46631 36.3142 3.66298 36.1809 3.87631 36.0809C4.08964 35.9809 4.31964 35.9309 4.56631 35.9309C4.85298 35.9309 5.10298 36.0009 5.31631 36.1409C5.53631 36.2742 5.70631 36.4776 5.82631 36.7509C5.95298 37.0176 6.01631 37.3542 6.01631 37.7609C6.01631 38.1542 5.97631 38.5342 5.89631 38.9009C5.82298 39.2676 5.70964 39.6076 5.55631 39.9209C5.40964 40.2276 5.22964 40.5009 5.01631 40.7409C4.80964 40.9742 4.56964 41.1576 4.29631 41.2909C4.02298 41.4176 3.72631 41.4809 3.40631 41.4809C3.16631 41.4809 2.95631 41.4376 2.77631 41.3509C2.60298 41.2642 2.45631 41.1509 2.33631 41.0109C2.21631 40.8709 2.11631 40.7209 2.03631 40.5609H1.98631C1.97964 40.6676 1.96298 40.8176 1.93631 41.0109C1.90964 41.1976 1.88298 41.3509 1.85631 41.4709L1.36631 43.7809H0.496309ZM3.33631 40.7509C3.54964 40.7509 3.74631 40.6976 3.92631 40.5909C4.11298 40.4776 4.27964 40.3242 4.42631 40.1309C4.57298 39.9309 4.69631 39.7042 4.79631 39.4509C4.90298 39.1909 4.98298 38.9176 5.03631 38.6309C5.08964 38.3376 5.11631 38.0409 5.11631 37.7409C5.11631 37.3809 5.04298 37.1109 4.89631 36.9309C4.75631 36.7509 4.54631 36.6609 4.26631 36.6609C4.11964 36.6609 3.96964 36.6976 3.81631 36.7709C3.66298 36.8442 3.51298 36.9509 3.36631 37.0909C3.21964 37.2242 3.08298 37.3842 2.95631 37.5709C2.82964 37.7576 2.71631 37.9642 2.61631 38.1909C2.52298 38.4109 2.44964 38.6476 2.39631 38.9009C2.34298 39.1476 2.31631 39.4042 2.31631 39.6709C2.31631 39.9909 2.39964 40.2509 2.56631 40.4509C2.73298 40.6509 2.98964 40.7509 3.33631 40.7509ZM8.43732 41.4809C8.15066 41.4809 7.89732 41.4142 7.67732 41.2809C7.46399 41.1409 7.29399 40.9342 7.16732 40.6609C7.04732 40.3876 6.98732 40.0509 6.98732 39.6509C6.98732 39.2509 7.02732 38.8676 7.10732 38.5009C7.19399 38.1276 7.31399 37.7842 7.46732 37.4709C7.62066 37.1576 7.80399 36.8876 8.01732 36.6609C8.23732 36.4276 8.48066 36.2476 8.74732 36.1209C9.02066 35.9876 9.31066 35.9209 9.61732 35.9209C9.85066 35.9209 10.054 35.9642 10.2273 36.0509C10.4073 36.1376 10.5573 36.2509 10.6773 36.3909C10.7973 36.5309 10.894 36.6842 10.9673 36.8509H11.0173L11.3373 36.0209H12.0073L10.8673 41.3809H10.1673L10.2973 40.3909H10.2573C10.104 40.5842 9.93399 40.7642 9.74732 40.9309C9.56066 41.0976 9.35732 41.2309 9.13732 41.3309C8.92399 41.4309 8.69066 41.4809 8.43732 41.4809ZM8.72732 40.7509C8.97399 40.7509 9.21399 40.6609 9.44732 40.4809C9.68732 40.3009 9.90399 40.0576 10.0973 39.7509C10.2907 39.4442 10.4373 39.1009 10.5373 38.7209C10.5907 38.5276 10.624 38.3509 10.6373 38.1909C10.6573 38.0242 10.6673 37.8709 10.6673 37.7309C10.6673 37.4176 10.5807 37.1609 10.4073 36.9609C10.234 36.7609 10.0007 36.6609 9.70732 36.6609C9.50066 36.6609 9.30399 36.7142 9.11732 36.8209C8.93732 36.9276 8.77066 37.0776 8.61732 37.2709C8.46399 37.4576 8.33399 37.6776 8.22732 37.9309C8.12066 38.1842 8.03732 38.4609 7.97732 38.7609C7.91732 39.0542 7.88732 39.3576 7.88732 39.6709C7.88732 40.0309 7.96066 40.3009 8.10732 40.4809C8.25399 40.6609 8.46066 40.7509 8.72732 40.7509ZM13.7209 41.4809C13.4343 41.4809 13.1509 41.4476 12.8709 41.3809C12.5976 41.3209 12.3676 41.2409 12.1809 41.1409V40.3309C12.3543 40.4242 12.5776 40.5209 12.8509 40.6209C13.1243 40.7142 13.4376 40.7609 13.7909 40.7609C14.0709 40.7609 14.3143 40.7209 14.5209 40.6409C14.7276 40.5542 14.8876 40.4376 15.0009 40.2909C15.1143 40.1376 15.1709 39.9609 15.1709 39.7609C15.1709 39.5276 15.1009 39.3376 14.9609 39.1909C14.8276 39.0442 14.5609 38.9709 14.1609 38.9709H13.4209L13.5909 38.2309H14.0809C14.3009 38.2309 14.5176 38.2076 14.7309 38.1609C14.9509 38.1142 15.1309 38.0242 15.2709 37.8909C15.4109 37.7576 15.4809 37.5642 15.4809 37.3109C15.4809 37.1109 15.4109 36.9542 15.2709 36.8409C15.1376 36.7209 14.9309 36.6609 14.6509 36.6609C14.4976 36.6609 14.3476 36.6742 14.2009 36.7009C14.0543 36.7209 13.9043 36.7576 13.7509 36.8109C13.6043 36.8576 13.4443 36.9209 13.2709 37.0009L13.0109 36.3309C13.2843 36.1976 13.5576 36.0976 13.8309 36.0309C14.1109 35.9576 14.4243 35.9209 14.7709 35.9209C15.1043 35.9209 15.3876 35.9709 15.6209 36.0709C15.8609 36.1709 16.0443 36.3142 16.1709 36.5009C16.2976 36.6876 16.3609 36.9142 16.3609 37.1809C16.3609 37.4209 16.3109 37.6342 16.2109 37.8209C16.1176 38.0076 15.9776 38.1642 15.7909 38.2909C15.6043 38.4176 15.3743 38.5109 15.1009 38.5709V38.5909C15.3876 38.6642 15.6109 38.7942 15.7709 38.9809C15.9309 39.1676 16.0109 39.4176 16.0109 39.7309C16.0109 40.0576 15.9276 40.3542 15.7609 40.6209C15.5943 40.8876 15.3409 41.0976 15.0009 41.2509C14.6609 41.4042 14.2343 41.4809 13.7209 41.4809ZM16.4143 43.7809L18.0543 36.0209H18.7743L18.6543 37.0209H18.6943C18.8543 36.8209 19.0243 36.6409 19.2043 36.4809C19.3843 36.3142 19.5809 36.1809 19.7943 36.0809C20.0076 35.9809 20.2376 35.9309 20.4843 35.9309C20.7709 35.9309 21.0209 36.0009 21.2343 36.1409C21.4543 36.2742 21.6243 36.4776 21.7443 36.7509C21.8709 37.0176 21.9343 37.3542 21.9343 37.7609C21.9343 38.1542 21.8943 38.5342 21.8143 38.9009C21.7409 39.2676 21.6276 39.6076 21.4743 39.9209C21.3276 40.2276 21.1476 40.5009 20.9343 40.7409C20.7276 40.9742 20.4876 41.1576 20.2143 41.2909C19.9409 41.4176 19.6443 41.4809 19.3243 41.4809C19.0843 41.4809 18.8743 41.4376 18.6943 41.3509C18.5209 41.2642 18.3743 41.1509 18.2543 41.0109C18.1343 40.8709 18.0343 40.7209 17.9543 40.5609H17.9043C17.8976 40.6676 17.8809 40.8176 17.8543 41.0109C17.8276 41.1976 17.8009 41.3509 17.7743 41.4709L17.2843 43.7809H16.4143ZM19.2543 40.7509C19.4676 40.7509 19.6643 40.6976 19.8443 40.5909C20.0309 40.4776 20.1976 40.3242 20.3443 40.1309C20.4909 39.9309 20.6143 39.7042 20.7143 39.4509C20.8209 39.1909 20.9009 38.9176 20.9543 38.6309C21.0076 38.3376 21.0343 38.0409 21.0343 37.7409C21.0343 37.3809 20.9609 37.1109 20.8143 36.9309C20.6743 36.7509 20.4643 36.6609 20.1843 36.6609C20.0376 36.6609 19.8876 36.6976 19.7343 36.7709C19.5809 36.8442 19.4309 36.9509 19.2843 37.0909C19.1376 37.2242 19.0009 37.3842 18.8743 37.5709C18.7476 37.7576 18.6343 37.9642 18.5343 38.1909C18.4409 38.4109 18.3676 38.6476 18.3143 38.9009C18.2609 39.1476 18.2343 39.4042 18.2343 39.6709C18.2343 39.9909 18.3176 40.2509 18.4843 40.4509C18.6509 40.6509 18.9076 40.7509 19.2543 40.7509ZM24.8453 41.4809C24.432 41.4809 24.0786 41.4009 23.7853 41.2409C23.4986 41.0742 23.2786 40.8409 23.1253 40.5409C22.9786 40.2342 22.9053 39.8742 22.9053 39.4609C22.9053 39.0342 22.9653 38.6142 23.0853 38.2009C23.212 37.7809 23.392 37.4009 23.6253 37.0609C23.8586 36.7142 24.1386 36.4376 24.4653 36.2309C24.7986 36.0242 25.172 35.9209 25.5853 35.9209C26.092 35.9209 26.472 36.0309 26.7253 36.2509C26.9853 36.4709 27.1153 36.7776 27.1153 37.1709C27.1153 37.4309 27.0553 37.6776 26.9353 37.9109C26.8153 38.1376 26.6286 38.3376 26.3753 38.5109C26.122 38.6842 25.7986 38.8209 25.4053 38.9209C25.012 39.0142 24.5386 39.0609 23.9853 39.0609H23.8153C23.8086 39.1209 23.802 39.1842 23.7953 39.2509C23.7953 39.3176 23.7953 39.3776 23.7953 39.4309C23.7953 39.8376 23.8953 40.1609 24.0953 40.4009C24.2953 40.6342 24.5986 40.7509 25.0053 40.7509C25.2586 40.7509 25.4986 40.7142 25.7253 40.6409C25.952 40.5676 26.1986 40.4676 26.4653 40.3409V41.0909C26.212 41.2042 25.962 41.2976 25.7153 41.3709C25.4753 41.4442 25.1853 41.4809 24.8453 41.4809ZM24.0153 38.3509C24.4153 38.3509 24.7853 38.3176 25.1253 38.2509C25.4653 38.1776 25.7386 38.0609 25.9453 37.9009C26.152 37.7342 26.2553 37.5142 26.2553 37.2409C26.2553 37.0676 26.1953 36.9276 26.0753 36.8209C25.962 36.7076 25.782 36.6509 25.5353 36.6509C25.322 36.6509 25.112 36.7176 24.9053 36.8509C24.6986 36.9842 24.512 37.1776 24.3453 37.4309C24.1786 37.6842 24.0453 37.9909 23.9453 38.3509H24.0153ZM29.2655 41.4809C28.8522 41.4809 28.5322 41.3676 28.3055 41.1409C28.0789 40.9142 27.9655 40.5876 27.9655 40.1609C27.9655 40.0009 27.9755 39.8509 27.9955 39.7109C28.0222 39.5709 28.0489 39.4276 28.0755 39.2809L28.7655 36.0209H29.6555L28.9455 39.3809C28.9189 39.5276 28.8955 39.6576 28.8755 39.7709C28.8555 39.8776 28.8455 39.9809 28.8455 40.0809C28.8455 40.2809 28.8989 40.4409 29.0055 40.5609C29.1189 40.6809 29.2922 40.7409 29.5255 40.7409C29.7455 40.7409 29.9755 40.6609 30.2155 40.5009C30.4555 40.3409 30.6789 40.0909 30.8855 39.7509C31.0989 39.4109 31.2622 38.9742 31.3755 38.4409L31.8955 36.0209H32.7755L32.0555 39.3809C32.0289 39.5276 32.0055 39.6542 31.9855 39.7609C31.9722 39.8676 31.9655 39.9609 31.9655 40.0409C31.9655 40.2609 32.0155 40.4342 32.1155 40.5609C32.2155 40.6809 32.3822 40.7409 32.6155 40.7409C32.7822 40.7409 32.9555 40.6976 33.1355 40.6109C33.3222 40.5242 33.5022 40.3876 33.6755 40.2009C33.8489 40.0076 34.0089 39.7576 34.1555 39.4509C34.3022 39.1442 34.4189 38.7709 34.5055 38.3309L34.9955 36.0209H35.8755L34.7355 41.3809H34.0155L34.1255 40.3909H34.0755C33.9555 40.5509 33.8122 40.7176 33.6455 40.8909C33.4855 41.0576 33.2989 41.1976 33.0855 41.3109C32.8722 41.4242 32.6289 41.4809 32.3555 41.4809C32.1755 41.4809 32.0122 41.4542 31.8655 41.4009C31.7255 41.3476 31.6055 41.2709 31.5055 41.1709C31.4055 41.0642 31.3255 40.9376 31.2655 40.7909C31.2055 40.6442 31.1655 40.4776 31.1455 40.2909H31.1055C30.9722 40.4842 30.8155 40.6742 30.6355 40.8609C30.4555 41.0409 30.2489 41.1909 30.0155 41.3109C29.7889 41.4242 29.5389 41.4809 29.2655 41.4809ZM38.5855 41.4809C38.1722 41.4809 37.8189 41.4009 37.5255 41.2409C37.2389 41.0742 37.0189 40.8409 36.8655 40.5409C36.7189 40.2342 36.6455 39.8742 36.6455 39.4609C36.6455 39.0342 36.7055 38.6142 36.8255 38.2009C36.9522 37.7809 37.1322 37.4009 37.3655 37.0609C37.5989 36.7142 37.8789 36.4376 38.2055 36.2309C38.5389 36.0242 38.9122 35.9209 39.3255 35.9209C39.8322 35.9209 40.2122 36.0309 40.4655 36.2509C40.7255 36.4709 40.8555 36.7776 40.8555 37.1709C40.8555 37.4309 40.7955 37.6776 40.6755 37.9109C40.5555 38.1376 40.3689 38.3376 40.1155 38.5109C39.8622 38.6842 39.5389 38.8209 39.1455 38.9209C38.7522 39.0142 38.2789 39.0609 37.7255 39.0609H37.5555C37.5489 39.1209 37.5422 39.1842 37.5355 39.2509C37.5355 39.3176 37.5355 39.3776 37.5355 39.4309C37.5355 39.8376 37.6355 40.1609 37.8355 40.4009C38.0355 40.6342 38.3389 40.7509 38.7455 40.7509C38.9989 40.7509 39.2389 40.7142 39.4655 40.6409C39.6922 40.5676 39.9389 40.4676 40.2055 40.3409V41.0909C39.9522 41.2042 39.7022 41.2976 39.4555 41.3709C39.2155 41.4442 38.9255 41.4809 38.5855 41.4809ZM37.7555 38.3509C38.1555 38.3509 38.5255 38.3176 38.8655 38.2509C39.2055 38.1776 39.4789 38.0609 39.6855 37.9009C39.8922 37.7342 39.9955 37.5142 39.9955 37.2409C39.9955 37.0676 39.9355 36.9276 39.8155 36.8209C39.7022 36.7076 39.5222 36.6509 39.2755 36.6509C39.0622 36.6509 38.8522 36.7176 38.6455 36.8509C38.4389 36.9842 38.2522 37.1776 38.0855 37.4309C37.9189 37.6842 37.7855 37.9909 37.6855 38.3509H37.7555ZM41.4358 41.3809L42.5758 36.0209H43.4458L42.9858 38.2509H45.5058L45.9858 36.0209H46.8658L45.7358 41.3809H44.8458L45.3458 38.9809H42.8258L42.3158 41.3809H41.4358ZM49.0516 41.4809C48.785 41.4809 48.5483 41.4309 48.3416 41.3309C48.1416 41.2309 47.985 41.0809 47.8716 40.8809C47.765 40.6809 47.7116 40.4376 47.7116 40.1509C47.7116 39.9976 47.7216 39.8542 47.7416 39.7209C47.7683 39.5809 47.795 39.4376 47.8216 39.2909L48.5216 36.0209H49.4116L48.6916 39.3909C48.665 39.5376 48.6416 39.6642 48.6216 39.7709C48.6083 39.8776 48.6016 39.9742 48.6016 40.0609C48.6016 40.2742 48.655 40.4442 48.7616 40.5709C48.875 40.6909 49.055 40.7509 49.3016 40.7509C49.5283 40.7509 49.7716 40.6709 50.0316 40.5109C50.2983 40.3509 50.545 40.0942 50.7716 39.7409C50.9983 39.3876 51.175 38.9176 51.3016 38.3309L51.7916 36.0209H52.6616L51.5216 41.3809H50.8016L50.9116 40.3909H50.8616C50.735 40.5509 50.585 40.7176 50.4116 40.8909C50.245 41.0576 50.0483 41.1976 49.8216 41.3109C49.6016 41.4242 49.345 41.4809 49.0516 41.4809ZM54.8426 41.4809C54.576 41.4809 54.3393 41.4309 54.1326 41.3309C53.9326 41.2309 53.776 41.0809 53.6626 40.8809C53.556 40.6809 53.5026 40.4376 53.5026 40.1509C53.5026 39.9976 53.5126 39.8542 53.5326 39.7209C53.5593 39.5809 53.586 39.4376 53.6126 39.2909L54.3126 36.0209H55.2026L54.4826 39.3909C54.456 39.5376 54.4326 39.6642 54.4126 39.7709C54.3993 39.8776 54.3926 39.9742 54.3926 40.0609C54.3926 40.2742 54.446 40.4442 54.5526 40.5709C54.666 40.6909 54.846 40.7509 55.0926 40.7509C55.3193 40.7509 55.5626 40.6709 55.8226 40.5109C56.0893 40.3509 56.336 40.0942 56.5626 39.7409C56.7893 39.3876 56.966 38.9176 57.0926 38.3309L57.5826 36.0209H58.4526L57.3126 41.3809H56.5926L56.7026 40.3909H56.6526C56.526 40.5509 56.376 40.7176 56.2026 40.8909C56.036 41.0576 55.8393 41.1976 55.6126 41.3109C55.3926 41.4242 55.136 41.4809 54.8426 41.4809Z" fill="black"/>
</svg>
